<svg width="62" height="62" viewBox="0 0 62 62" fill="none" xmlns="http://www.w3.org/2000/svg">
<path d="M30.9539 61.9992C13.7863 61.9475 -0.0945412 47.9912 0.000485006 30.8047C0.0955113 13.7706 13.9721 -0.0487713 31.1286 0.00012938C48.2053 0.04903 62.0945 14.0514 61.9995 31.1359C61.9045 48.2273 48.039 61.9754 30.9553 61.9992H30.9539ZM31.0014 4.06866C16.1004 4.06587 4.0922 16.0535 4.06984 30.9556C4.04749 45.8606 16.0445 57.8705 30.9231 57.9236C45.8143 57.9767 57.9511 45.8871 57.9316 30.9989C57.912 16.0884 45.9135 4.07006 31.0014 4.06727V4.06866Z" fill="#E1055F"/>
<path d="M32.5275 34.3745C37.3766 34.4989 42.5374 37.0696 46.5341 42.0002C46.8988 42.4501 47.2468 42.9196 47.55 43.4127C47.9735 44.1015 47.9721 44.8309 47.5458 45.5225C47.1126 46.228 46.4516 46.555 45.6299 46.4879C44.9801 46.4348 44.4701 46.0995 44.1039 45.5602C42.2928 42.886 39.9326 40.8657 36.9462 39.6139C34.5566 38.6121 32.0677 38.2167 29.4825 38.4989C24.5285 39.041 20.7289 41.4847 17.9088 45.535C17.4407 46.2071 16.8048 46.5731 15.9804 46.4865C15.1796 46.4027 14.5913 45.9696 14.2922 45.2123C14.0267 44.5403 14.1092 43.8878 14.513 43.287C16.3241 40.6031 18.6271 38.4444 21.4541 36.8601C24.4223 35.1974 27.6085 34.3522 32.5289 34.3759L32.5275 34.3745Z" fill="#E1055F"/>
<path d="M19.5564 27.6251C16.9446 27.632 14.8219 25.5335 14.8121 22.9334C14.8023 20.3375 16.9222 18.1998 19.5145 18.1914C22.1361 18.183 24.2714 20.2984 24.277 22.9096C24.2826 25.507 22.1683 27.6181 19.555 27.6251H19.5564Z" fill="#E1055F"/>
<path d="M42.4507 27.625C39.8375 27.625 37.7232 25.5237 37.7204 22.9222C37.7162 20.3095 39.8473 18.1872 42.4689 18.1914C45.064 18.1956 47.1881 20.3277 47.1839 22.9222C47.1797 25.5223 45.064 27.625 42.4507 27.625Z" fill="#E1055F"/>
</svg>
