<svg width="50" height="65" viewBox="0 0 50 65" fill="none" xmlns="http://www.w3.org/2000/svg">
<path d="M11.7368 6.01477C22.1867 0.320263 32.9736 -1.83936 44.2648 2.61932C48.2376 4.18026 49.997 7.83813 49.5219 13.0044C48.98 18.9196 46.7211 24.1287 43.3472 28.3477C39.4243 33.2463 35.1714 37.8822 30.6482 41.9963C25.9967 46.2238 20.8413 49.6994 15.8996 53.4992C14.7364 54.3972 13.5571 55.2857 12.5274 56.6259C17.8201 55.4051 23.0888 54.2409 28.1181 51.9616C29.523 51.3219 31.0193 50.2534 32.8281 52.5411C32.0707 53.452 31.4907 54.6543 30.6158 55.1324C27.2288 56.969 23.8056 58.7964 20.2731 60.2192C16.0501 61.9218 11.7341 63.3233 7.40979 64.626C3.94876 65.6672 1.31409 64.2153 0.976069 60.1861C0.576235 55.4272 1.23678 50.5335 1.6042 45.7159C1.66277 44.9153 2.54915 44.1971 3.13385 43.3149C7.5266 45.8728 4.75284 50.8057 6.31174 54.6054C16.6378 45.4413 28.1777 38.3829 37.3591 27.5413C40.2165 24.1619 42.7358 20.468 44.1404 15.9251C45.948 10.1005 45.0354 7.94678 39.9815 6.21478C32.3906 3.60505 24.8598 4.73348 17.3349 6.72349C15.6083 7.17581 13.8167 7.30817 12.0575 7.60051C11.9479 7.07821 11.8464 6.56061 11.7368 6.03831L11.7368 6.01477Z" fill="#E1055F"/>
</svg>
