<svg width="61" height="90" viewBox="0 0 61 90" fill="none" xmlns="http://www.w3.org/2000/svg">
<path d="M1.00247 4.12885C2.26497 4.32488 3.52199 4.69884 4.77487 4.6927C15.9711 4.59415 25.195 10.3389 33.358 18.537C36.174 21.3659 38.5231 25.3115 40.0937 29.2788C44.5796 40.6309 46.7531 52.6965 46.0668 65.2747C45.8697 68.8959 45.091 72.4819 43.8135 76.098C43.54 74.9456 43.2359 73.7946 43 72.6348C42.3228 69.2037 41.7929 65.721 40.9563 62.3395C40.5979 60.8636 39.7364 59.4959 38.8919 58.2744C38.5797 57.8234 37.553 57.5991 37.084 57.8637C36.6545 58.1069 36.182 59.2655 36.3331 59.7799C38.8009 68.2278 39.0332 77.0883 39.9975 85.8184C40.3393 88.8801 41.4817 90.0203 43.8752 89.3862C49.9579 87.7905 55.4764 84.6597 60.4414 80.2319C60.6069 80.0906 60.5814 79.6421 60.7518 78.7787C56.228 75.2927 52.7726 80.5344 47.7743 81.1913C48.2435 79.8746 48.703 78.9498 48.9279 77.9532C53.1684 58.6627 50.4178 40.4074 42.7694 22.9706C41.6036 20.3159 39.8858 17.8604 38.053 15.7632C31.2287 7.9683 23.1132 2.74919 13.7199 0.73812C10.6978 0.0901584 7.46341 0.526932 4.3437 0.791508C3.13233 0.898316 1.97579 1.87407 0.793121 2.45138C0.858308 3.01447 0.918468 3.56947 0.99055 4.12666L1.00247 4.12885Z" fill="#E1055F"/>
</svg>
