<svg width="99" height="67" viewBox="0 0 99 67" fill="none" xmlns="http://www.w3.org/2000/svg">
<path d="M1.75212 12.318C3.15833 11.8182 4.63995 11.4796 5.94399 10.8049C17.5775 4.73704 29.8171 4.9236 42.0683 7.86059C46.295 8.87443 50.5437 11.1316 53.9901 13.8239C63.8434 21.5323 71.6099 31.1108 76.6271 42.6731C78.072 46.0016 78.8941 49.6094 79.2098 53.5103C78.3993 52.6306 77.5575 51.7687 76.7829 50.8623C74.5126 48.1701 72.3725 45.3532 69.9586 42.7901C68.9121 41.668 67.39 40.9107 65.9525 40.2745C65.4212 40.0398 64.2481 40.3886 63.8795 40.8746C63.5423 41.3205 63.5776 42.6041 63.9696 42.9813C70.3942 49.1825 74.675 56.9451 79.6599 64.2006C81.412 66.7432 83.1232 67.1479 85.3308 65.3051C90.9482 60.6358 95.2773 54.9015 98.4382 48.3085C98.5463 48.0942 98.3153 47.7087 98.0995 46.8492C91.792 46.1626 90.5769 52.6738 85.6626 55.9282C85.5519 54.5056 85.6098 53.437 85.3901 52.4299C81.0209 32.9946 69.8312 18.215 53.9059 6.77995C51.4798 5.03972 48.5689 3.77164 45.7013 2.88387C35.0302 -0.409179 24.1864 -0.719966 13.4718 2.50724C10.0242 3.5447 6.84962 5.66102 3.71613 7.56284C2.50126 8.30494 1.73965 9.79119 0.769174 10.9367C1.09382 11.4031 1.40953 11.865 1.73868 12.3224L1.75212 12.318Z" fill="#E1055F"/>
</svg>
