<svg width="26" height="22" viewBox="0 0 26 22" fill="none" xmlns="http://www.w3.org/2000/svg">
<path d="M4.31796 3.6645V18.2791H18.932C18.9372 18.1926 18.9465 18.1037 18.9465 18.0153C18.9465 16.9157 18.9423 15.8161 18.9493 14.7169C18.9553 13.7816 19.4865 13.0831 20.3382 12.8648C21.4472 12.581 22.5761 13.4065 22.5948 14.5489C22.6166 15.8724 22.6241 17.1972 22.592 18.5207C22.5487 20.3127 20.9709 21.8744 19.1795 21.9451C19.0632 21.9498 18.9471 21.9521 18.8311 21.9521C14.0287 21.9521 9.22638 21.9386 4.42449 21.9596C2.70989 21.9665 1.2809 20.8935 0.826902 19.4062C0.71834 19.0517 0.661622 18.6834 0.658512 18.3126C0.647658 13.4268 0.646262 8.5407 0.654324 3.65426C0.658046 1.62024 2.2424 0.0217774 4.2747 0.0106091C7.34153 -0.00660866 10.4088 -9.38203e-05 13.4761 0.0106091C14.4474 0.0134012 15.1828 0.719331 15.2828 1.69469C15.3717 2.56443 14.7549 3.4067 13.8627 3.60913C13.6499 3.65023 13.4332 3.66786 13.2166 3.66171C10.3586 3.66512 7.50046 3.6659 4.64218 3.66404L4.31796 3.6645Z" fill="#E30670"/>
<path d="M12.5414 10.2923C12.6433 10.1564 12.6866 10.0805 12.7461 10.021C15.8841 6.88331 19.0215 3.74657 22.1583 0.610766C22.8653 -0.0956289 23.8459 -0.194748 24.6022 0.357618C24.8076 0.507267 24.9794 0.698279 25.1066 0.918361C25.2337 1.13844 25.3134 1.38272 25.3405 1.63546C25.3676 1.88821 25.3414 2.14383 25.2638 2.38587C25.1862 2.62791 25.0587 2.851 24.8897 3.0408C24.6571 3.3 24.4031 3.53918 24.1566 3.78535C20.7569 7.18486 17.3565 10.5839 13.9555 13.9825C13.0759 14.862 12.0107 14.8638 11.1339 13.9881C10.257 13.1123 9.3853 12.2542 8.52382 11.3751C7.56977 10.4016 7.89352 8.83156 9.14481 8.3611C9.83512 8.10143 10.4798 8.22149 11.0241 8.71755C11.4809 9.13636 11.9079 9.58635 12.3433 10.0252C12.4033 10.0852 12.4461 10.162 12.5414 10.2923Z" fill="#E30670"/>
</svg>
