<svg width="24" height="24" viewBox="0 0 24 24" fill="none" xmlns="http://www.w3.org/2000/svg">
<g opacity="0.5" clip-path="url(#clip0_792_67)">
<path d="M12.0001 13.714C14.367 13.714 16.2858 11.7952 16.2858 9.42829C16.2858 7.06136 14.367 5.14258 12.0001 5.14258C9.63314 5.14258 7.71436 7.06136 7.71436 9.42829C7.71436 11.7952 9.63314 13.714 12.0001 13.714Z" stroke="#6C5F90" stroke-linecap="round" stroke-linejoin="round"/>
<path d="M4.67993 20.4C5.44492 19.1443 6.52006 18.1066 7.802 17.3864C9.08394 16.6663 10.5296 16.2881 11.9999 16.2881C13.4703 16.2881 14.9159 16.6663 16.1979 17.3864C17.4798 18.1066 18.5549 19.1443 19.3199 20.4" stroke="#6C5F90" stroke-linecap="round" stroke-linejoin="round"/>
<path d="M12 23.1426C18.1541 23.1426 23.1429 18.1538 23.1429 11.9998C23.1429 5.84576 18.1541 0.856934 12 0.856934C5.846 0.856934 0.857178 5.84576 0.857178 11.9998C0.857178 18.1538 5.846 23.1426 12 23.1426Z" stroke="#6C5F90" stroke-linecap="round" stroke-linejoin="round"/>
</g>
<defs>
<clipPath id="clip0_792_67">
<rect width="24" height="24" fill="white"/>
</clipPath>
</defs>
</svg>
