<svg width="24" height="24" viewBox="0 0 24 24" fill="none" xmlns="http://www.w3.org/2000/svg">
<g opacity="0.5" clip-path="url(#clip0_792_68)">
<path d="M15.0172 22.2855C16.0729 22.9666 17.3309 23.2634 18.5797 23.1261C19.8285 22.9887 20.992 22.4255 21.8744 21.5313L22.6458 20.777C22.984 20.431 23.1734 19.9665 23.1734 19.4827C23.1734 18.9989 22.984 18.5343 22.6458 18.1884L19.3715 14.9484C19.0285 14.6113 18.5668 14.4224 18.0858 14.4224C17.6048 14.4224 17.1431 14.6113 16.8001 14.9484V14.9484C16.4542 15.2866 15.9896 15.476 15.5058 15.476C15.022 15.476 14.5574 15.2866 14.2115 14.9484L9.06866 9.80555C8.89709 9.63648 8.76086 9.43499 8.66786 9.21279C8.57487 8.9906 8.52699 8.75213 8.52699 8.51126C8.52699 8.27039 8.57487 8.03193 8.66786 7.80973C8.76086 7.58754 8.89709 7.38605 9.06866 7.21698V7.21698C9.40578 6.87394 9.59468 6.41222 9.59468 5.93126C9.59468 5.4503 9.40578 4.98858 9.06866 4.64555L5.81151 1.38841C5.46558 1.0502 5.00101 0.86084 4.51723 0.86084C4.03344 0.86084 3.56887 1.0502 3.22294 1.38841L2.46866 2.15983C1.57439 3.04225 1.01123 4.20567 0.873861 5.45446C0.736493 6.70326 1.0333 7.96128 1.71437 9.01698C5.26302 14.2468 9.77826 18.7504 15.0172 22.2855V22.2855Z" stroke="#6C5F90" stroke-linecap="round" stroke-linejoin="round"/>
</g>
<defs>
<clipPath id="clip0_792_68">
<rect width="24" height="24" fill="white"/>
</clipPath>
</defs>
</svg>
