<svg>
<path d="M51.9951 120.763L51.9968 121.763C51.994 121.822 51.9913 121.882 51.9914 121.944L51.9947 122.92L52.155 191L126.017 190.855C129.992 190.848 132.338 186.414 130.12 183.114C127.361 179.013 125.747 174.078 125.735 168.766C125.7 154.03 138.002 142.154 152.914 142.905C166.248 143.573 176.969 154.499 177.415 167.847C177.603 173.459 175.992 178.695 173.122 183.011C170.917 186.328 173.268 190.763 177.248 190.756L251.11 190.61L250.95 122.53L250.947 121.555C250.947 121.555 250.946 121.538 250.946 121.533L250.944 120.533C250.932 116.551 255.37 114.205 258.687 116.411C263.005 119.283 268.241 120.895 273.854 120.71C287.199 120.266 298.121 109.549 298.786 96.2194C299.532 81.3078 287.649 69.0044 272.914 69.0312C267.602 69.0409 262.667 70.6524 258.568 73.4102C255.271 75.6297 250.836 73.2818 250.825 69.3046L250.826 69.083C250.826 69.083 250.828 69.0694 250.825 69.0614L250.822 68.0861L250.666 0L51.7058 0.389845L51.8661 68.4703L51.8694 69.4457C51.8688 69.4916 51.8733 69.532 51.8727 69.5779C51.8446 73.5244 47.4505 75.863 44.1522 73.6645C40.0377 70.9213 35.0967 69.3309 29.782 69.3434C15.0452 69.373 3.22395 81.7246 4.03984 96.6314C4.76595 109.962 15.7386 120.636 29.0864 121.027C34.7009 121.19 39.9294 119.558 44.2312 116.669C47.5364 114.452 51.9837 116.781 51.9923 120.761L51.9951 120.763Z" fill="black"/>
</svg>
