<svg width="2979" height="2979" viewBox="0 0 2979 2979" fill="none" xmlns="http://www.w3.org/2000/svg">
<path d="M1489.5 1489.5L1290.17 1450.16L1460.99 1480.43L1489.5 1489.5Z" fill="url(#paint0_radial_430_147)"/>
<path d="M1489.23 1489.35L1489.41 1489.44L1489.2 1489.41L1488.96 1489.32L1488.87 1489.29H1488.84L1488.72 1489.23L1488.51 1489.2V1489.17H1488.39L1488.33 1489.14H1488.3L1488.06 1489.02L1487.94 1488.99L1487.77 1488.96L1487.68 1488.93H1487.65L1487.59 1488.87L1487.41 1488.84L1487.38 1488.81L1487.17 1488.75L1486.99 1488.72L1486.96 1488.69H1486.84V1488.63L1486.51 1488.57L1486.27 1488.48L1485.59 1488.21H1485.41L1485.29 1488.15L1484.99 1488.06H1484.93L1484.28 1487.85V1487.82L1482.37 1487.26L1482.28 1487.23L1480.67 1486.69L1480.49 1486.66L1478.1 1485.86L1477.48 1485.68H1477.42L1469.4 1483.11L1469.22 1483.08L1460.78 1480.4L0 1018.23V826.814L1463.19 1477.8L1474.55 1482.84L1478.97 1484.81L1481.09 1485.77L1481.44 1485.92L1481.47 1485.95H1481.53L1482.55 1486.39L1482.87 1486.54L1483.53 1486.87L1484.9 1487.47H1484.93L1485.23 1487.59L1485.44 1487.68L1485.62 1487.79L1485.95 1487.91L1486.01 1487.94L1486.72 1488.27L1486.9 1488.36L1487.05 1488.39L1487.08 1488.42H1487.11L1487.17 1488.48L1487.32 1488.57L1487.47 1488.6H1487.5L1487.65 1488.69H1487.68V1488.72H1487.74L1487.82 1488.75L1487.94 1488.81L1488.33 1488.96L1488.39 1488.99L1488.51 1489.02L1488.57 1489.08L1488.72 1489.17H1488.75L1488.96 1489.23H1488.99L1489.23 1489.35Z" fill="url(#paint1_radial_430_147)"/>
<path d="M1489.44 1489.44V1489.5L1489.41 1489.44H1489.44Z" fill="url(#paint2_radial_430_147)"/>
<path d="M1487.74 1489.56V1489.62L1487.59 1489.52L1487.74 1489.56Z" fill="url(#paint3_radial_430_147)"/>
<path d="M1487.59 1489.43L1487.74 1489.55L1487.59 1489.52V1489.49L1487.41 1489.41L1487.2 1489.29L1487.17 1489.23H1487.11L1486.99 1489.17H1486.96L1486.84 1489.08L1486.81 1489.02H1486.75V1488.99L1486.54 1488.93L1486.36 1488.81L1485.5 1488.27L1485.41 1488.21L1485.29 1488.15L1485.23 1488.09L1485.05 1488.03H1485.02L1484.63 1487.79L1484.54 1487.68L1483.23 1486.93L1482.55 1486.57L1482.34 1486.45L1481.53 1485.95H1481.47L1481.44 1485.92L1481.15 1485.77L1479.8 1484.93L1476.94 1483.29L1472.08 1480.43L1472.05 1480.4L0 618.754V377.86L1477.69 1482.1L1480.01 1483.8L1482.07 1485.35L1482.55 1485.68L1482.99 1486.04L1483.29 1486.27L1483.65 1486.54L1483.98 1486.72L1484.9 1487.47H1484.93V1487.5L1485.14 1487.62L1485.35 1487.79L1485.44 1487.85L1485.68 1488.06H1485.74L1486.21 1488.42L1486.27 1488.48L1486.48 1488.63L1486.69 1488.81L1486.81 1488.87H1486.84L1486.9 1488.96H1486.96L1487.17 1489.17H1487.2L1487.47 1489.35L1487.5 1489.41L1487.59 1489.43Z" fill="url(#paint4_radial_430_147)"/>
<path d="M1487.74 1489.62V1489.55L1487.77 1489.62H1487.74Z" fill="url(#paint5_radial_430_147)"/>
<path d="M1489.23 1489.23L1489.08 1489.08L1488.84 1488.87L1488.75 1488.81H1488.72L1488.63 1488.69L1488.3 1488.39V1488.36L1487.97 1488.06L1487.85 1487.97L1487.77 1487.85L1487.53 1487.65L1487.32 1487.47H1487.29V1487.41L1487.23 1487.38H1487.2L1487.17 1487.29H1487.11V1487.26L1487.05 1487.23H1486.99L1486.96 1487.14V1487.11L1486.9 1487.05H1486.87L1486.69 1486.9V1486.87L1486.48 1486.66L1486.18 1486.39H1486.15V1486.36L1486.01 1486.24L1485.8 1486.04V1486.01L1485.68 1485.92L1485.29 1485.56L1484.25 1484.57L1483.89 1484.22H1483.86L1483.38 1483.77H1483.35L0 93.578V0H220.526L1483.62 1482.61L1483.65 1482.64L1485.02 1484.25L1485.44 1484.78L1486.12 1485.53L1486.15 1485.56L1486.3 1485.8L1486.51 1486.04L1486.63 1486.15L1486.75 1486.27L1486.81 1486.36L1486.87 1486.45L1487.05 1486.6L1487.2 1486.81L1487.38 1487.02L1487.41 1487.05L1487.47 1487.14L1487.53 1487.17L1487.65 1487.38H1487.68L1487.74 1487.47L1487.85 1487.59V1487.62L1487.94 1487.68L1488.03 1487.8L1488.09 1487.85L1488.18 1487.94L1488.21 1487.97L1488.27 1488.06V1488.09H1488.3V1488.15L1488.39 1488.18L1488.72 1488.6L1488.78 1488.72L1488.87 1488.81H1488.9L1489.11 1489.02L1489.23 1489.23Z" fill="url(#paint6_radial_430_147)"/>
<path d="M1489.32 1489.29L1489.35 1489.35L1489.26 1489.32V1489.29H1489.32Z" fill="url(#paint7_radial_430_147)"/>
<path d="M1489.35 1489.35L1489.44 1489.44H1489.41L1489.35 1489.35Z" fill="url(#paint8_radial_430_147)"/>
<path d="M1489.5 1489.44H1489.44V1489.5H1489.5V1489.44Z" fill="url(#paint9_radial_430_147)"/>
<path d="M1487.68 1488.72V1488.69L1487.74 1488.72L1487.94 1488.96L1487.68 1488.72Z" fill="url(#paint10_radial_430_147)"/>
<path d="M1487.95 1488.96L1487.74 1488.72L1487.68 1488.69L1487.59 1488.57V1488.51L1487.53 1488.39L1487.5 1488.36L1487.41 1488.18H1487.38V1488.15L1487.29 1488.06L1487.17 1487.85V1487.82L1487.08 1487.8V1487.68L1487.05 1487.65H1486.99L1486.87 1487.47L1486.81 1487.29L1486.72 1487.23V1487.17L1486.54 1486.96L1486.39 1486.69L1486.19 1486.39H1486.16V1486.36L1486.07 1486.24L1486.04 1486.15L1485.95 1486.04L1485.8 1485.86L1485.62 1485.56H1485.59L1485.05 1484.72H1485.02L1484.66 1484.13L1483.65 1482.64L1483.62 1482.61L480.953 0H708.039L1109.49 766.457L1485.53 1484.43L1485.74 1484.81L1486.13 1485.53L1486.16 1485.56L1486.28 1485.8L1486.39 1486.1L1486.42 1486.12L1486.48 1486.24H1486.51L1486.54 1486.36L1486.63 1486.57L1486.81 1486.81L1486.9 1487.05L1486.96 1487.11V1487.14L1486.99 1487.23L1487.08 1487.35V1487.41L1487.11 1487.47L1487.2 1487.59V1487.62L1487.23 1487.65V1487.68L1487.38 1487.91V1487.94H1487.41V1488.03L1487.5 1488.09L1487.59 1488.27V1488.36L1487.65 1488.48L1487.83 1488.75L1487.95 1488.96Z" fill="url(#paint11_radial_430_147)"/>
<path d="M1489.35 1488.93L1489.41 1489.14L1489.32 1488.93L1489.26 1488.87L1489.23 1488.81L1489.14 1488.6L1489.11 1488.39H1489.08V1488.36L1488.99 1488.18V1488.09L1488.96 1488.06L1488.9 1487.94L1488.87 1487.83L1488.78 1487.59L1488.63 1487.17L1488.57 1487.14L1488.33 1486.48L1488.3 1486.3L1488.21 1486.21V1486.16L1488.15 1486.01L1488.09 1485.86L1488.06 1485.8L1488.03 1485.62L1487.97 1485.53L1487.94 1485.44L1487.85 1485.23L1487.83 1485.2V1485.08H1487.77L1486.63 1482.1V1482.07L907.868 0H1093.12L1487.11 1480.43V1480.49L1488.15 1484.4L1488.39 1485.26L1488.42 1485.32V1485.38L1488.45 1485.47V1485.59L1488.51 1485.62V1485.68L1488.54 1485.8V1485.86L1488.57 1485.95L1488.87 1487.11V1487.14H1488.9V1487.17L1488.99 1487.5L1489.05 1487.59V1487.65L1489.08 1487.85L1489.11 1488.03L1489.14 1488.15L1489.2 1488.27L1489.23 1488.39L1489.26 1488.51L1489.32 1488.69L1489.35 1488.93Z" fill="url(#paint12_radial_430_147)"/>
<path d="M1489.44 1489.14V1489.23L1489.41 1489.17V1489.14H1489.44Z" fill="url(#paint13_radial_430_147)"/>
<path d="M1489.52 1489.41V1489.44H1489.46L1489.44 1489.23L1489.46 1489.29L1489.52 1489.41Z" fill="url(#paint14_radial_430_147)"/>
<path d="M1488.3 1488.09V1488.36L1488.27 1488.09V1488.06L1488.21 1487.74L1488.18 1487.62V1487.47L1488.09 1487.05L1488.06 1486.72V1486.69L1488.03 1486.48L1487.97 1486.13L1487.94 1486.01V1485.86L1487.88 1485.62V1485.56L1487.85 1485.44V1485.23L1487.82 1485.2V1485.08L1487.11 1480.49V1480.43L1264.7 0H1433.31L1488.15 1484.4L1488.18 1485.2V1485.56L1488.21 1485.71V1486.45L1488.27 1486.72V1487.8L1488.3 1488.09Z" fill="url(#paint15_radial_430_147)"/>
<path d="M1770.5 0L1491.26 1480.31L1491.23 1480.37L1490.48 1484.31L1490.24 1485.62L1490.06 1486.78V1486.81L1489.88 1487.5V1487.53L1489.82 1487.68V1487.85L1489.79 1488.03L1489.76 1488.09L1489.73 1488.39L1489.65 1488.81V1488.87L1489.62 1489.08V1489.14L1489.53 1489.35L1489.56 1489.08V1488.81L1489.62 1488.36V1488.18L1489.65 1488.06V1487.68L1489.7 1487.59V1487.26L1489.73 1486.87L1489.79 1485.92L1489.88 1484.81L1490.12 1481.59V1481.53L1600.34 0H1770.5Z" fill="url(#paint16_radial_430_147)"/>
<path d="M1488.99 1487.62H1489.05V1487.65L1488.96 1487.83L1488.99 1487.62Z" fill="url(#paint17_radial_430_147)"/>
<path d="M2134.97 0L1549.76 1347.79L1490.48 1484.31L1489.79 1485.92L1489.44 1486.78L1489.23 1487.26H1489.2V1487.29L1489.14 1487.35L1489.05 1487.62V1487.59L1489.11 1487.29V1487.26L1489.14 1487.23L1489.41 1486.36L1489.88 1484.81L1491.22 1480.37L1491.25 1480.31L1945.04 0H2134.97Z" fill="url(#paint18_radial_430_147)"/>
<path d="M2578.35 0L1493.28 1483.8L1493.25 1483.86L1490.93 1487.02L1490.9 1487.05L1490.42 1487.8L1490.33 1487.85L1490.27 1487.94L1490.18 1488.09L1490.09 1488.18L1489.88 1488.48L1489.64 1488.81L1489.61 1488.84L1489.55 1488.93L1489.53 1488.96V1488.99H1489.47L1489.44 1489.14H1489.41V1489.17L1489.35 1489.2L1489.32 1489.29H1489.26V1489.32L1489.23 1489.35L1489.2 1489.41L1489.08 1489.55L1488.96 1489.73L1488.9 1489.82L1488.87 1489.85L1488.75 1490L1488.57 1490.24L1488.39 1490.51V1490.54L1488.09 1490.9L1487.77 1491.34L1488.06 1490.81L1488.33 1490.39L1488.39 1490.3L1488.54 1490L1488.69 1489.76L1488.9 1489.35L1488.96 1489.32V1489.23H1488.99L1489.05 1489.17L1489.08 1489.08L1489.11 1489.02L1489.2 1488.87L1489.23 1488.84V1488.81L1489.32 1488.69L1489.35 1488.57L1489.47 1488.39L1489.53 1488.3L1489.61 1488.18L1489.64 1488.06L1489.79 1487.82V1487.8H1489.82V1487.68H1489.88L1489.91 1487.59L1490.09 1487.29L1490.12 1487.26L1491.7 1484.46L2340.14 0H2578.35Z" fill="url(#paint19_radial_430_147)"/>
<path d="M2978.96 0V191.898L1490.93 1487.02L1490.9 1487.05L1490.21 1487.65L1490.06 1487.83L1489.91 1487.91L1489.79 1488.03L1489.73 1488.06L1489.61 1488.18L1489.52 1488.3H1489.47L1489.26 1488.48V1488.51L1489.2 1488.57L1489.14 1488.6L1489.08 1488.69H1489.05L1488.9 1488.81L1488.87 1488.84L1488.84 1488.87L1488.75 1488.96L1488.63 1489.02L1488.57 1489.08L1488.51 1489.17V1489.2L1488.42 1489.23H1488.39L1488.33 1489.29L1488.27 1489.35V1489.41L1488.03 1489.55V1489.52L1488.21 1489.32L1488.3 1489.23H1488.33V1489.2L1488.39 1489.17H1488.42V1489.14L1488.45 1489.02H1488.51L1488.57 1488.96L1488.69 1488.87L1488.72 1488.81H1488.75V1488.75L1488.78 1488.72L1488.9 1488.6L1488.99 1488.51V1488.48H1489.05V1488.42L1489.08 1488.39H1489.11L1489.14 1488.3L1489.2 1488.27L1489.26 1488.18L1489.44 1487.97H1489.47L1489.64 1487.8L1489.7 1487.74L1489.76 1487.62L1489.88 1487.53V1487.5L1490.09 1487.29L1490.12 1487.26L1493.25 1483.86L1493.28 1483.8L2854.73 0H2978.96Z" fill="url(#paint20_radial_430_147)"/>
<path d="M2978.96 460.256V690.593L1495.85 1487.02L1495.79 1487.05L1493.16 1488.42L1492.6 1488.75L1492.36 1488.87L1492.33 1488.93L1492.12 1488.99L1491.7 1489.23L1491.67 1489.29L1490.57 1489.85L1490.48 1489.88L1490.21 1490.06L1490.12 1490.09L1489.94 1490.18L1489.73 1490.3L1489.55 1490.39L1489.47 1490.48H1489.41L1488.96 1490.69V1490.75L1488.69 1490.87L1488.54 1490.93L1488.39 1491.02L1488.18 1491.14L1487.77 1491.34L1488.15 1491.11L1488.39 1490.93L1488.51 1490.81L1488.69 1490.75L1488.87 1490.57H1488.9L1489.11 1490.42L1489.55 1490.12L1489.79 1489.91L1489.91 1489.88V1489.85L1490.06 1489.76L1490.27 1489.61L1490.66 1489.35L1491.14 1489.02L1491.25 1488.93L1491.55 1488.75L1491.58 1488.72H1491.61V1488.69H1491.67L1491.94 1488.48L1492.24 1488.27L1494.18 1486.93L1494.21 1486.9L2978.96 460.256Z" fill="url(#paint21_radial_430_147)"/>
<path d="M2978.96 891.526V1078.03L2265.08 1275.32L1493.61 1488.57L1492.71 1488.81L1492.36 1488.87L1492.33 1488.93L1492.06 1488.96L1491.55 1489.14L1491.37 1489.17L1490.66 1489.35L1490.18 1489.5H1490.12L1489.88 1489.55L1489.79 1489.61L1489.7 1489.64H1489.64L1489.23 1489.73L1488.87 1489.85L1488.72 1489.88L1488.9 1489.82L1489.2 1489.67L1489.55 1489.53H1489.61L1489.79 1489.44L1489.94 1489.35H1490.06L1490.09 1489.32L1490.99 1488.96L1491.22 1488.87L1491.55 1488.75L1491.58 1488.72H1491.67V1488.69L1492.12 1488.51L1492.57 1488.36L1495.79 1487.05L1495.85 1487.02L2978.96 891.526Z" fill="url(#paint22_radial_430_147)"/>
<path d="M2978.96 1251.52V1420.79L1503.99 1490.57L1498.47 1490.87H1498.44L1497.46 1490.9H1496.89L1495.52 1490.99H1495.46L1494.09 1491.05L1492.95 1491.11L1492.33 1491.13L1491.58 1491.19H1491.02L1490.48 1491.22L1489.23 1491.25H1489.08L1488.75 1491.28H1488.21L1487.77 1491.34L1488.18 1491.25L1488.42 1491.22L1488.69 1491.19H1488.75L1489.05 1491.13H1489.14L1490.27 1490.93H1490.33L1490.78 1490.87L1490.93 1490.81L1491.22 1490.78H1491.25L1491.76 1490.69L1492.33 1490.63L1493.31 1490.48L1494.06 1490.33L1494.3 1490.3H1494.33L1495.46 1490.09H1495.67L1495.94 1490.06L1498.83 1489.55H1498.89L2978.96 1251.52Z" fill="url(#paint23_radial_430_147)"/>
<path d="M2978.96 1585.46V1755.23L1630.82 1515.56L1507.39 1493.67H1507.3L1501.24 1492.57L1497.61 1491.91L1496.89 1491.79H1496.86L1494.53 1491.37L1492.95 1491.11L1492.06 1490.93L1491.25 1490.78H1491.22L1490.81 1490.75V1490.69H1490.66L1490.33 1490.63H1490.18L1489.94 1490.57L1489.41 1490.48L1489.11 1490.42L1489.47 1490.48H1489.82L1490.09 1490.51H1490.6L1490.75 1490.54H1491.05L1491.58 1490.57L1492.33 1490.63L1493.64 1490.69L1495.07 1490.78L1495.19 1490.81L1496.89 1490.9H1496.95L1497.58 1490.93L1499.13 1491.05H1499.19L1509.86 1491.76H1509.95L2978.96 1585.46Z" fill="url(#paint24_radial_430_147)"/>
<path d="M1672.03 1545.89L1519.82 1500.83L1513.32 1498.89L1504.64 1496.32H1504.58L1498.92 1494.62L1495.85 1493.73L1495.79 1493.7L1493.19 1492.95L1493.16 1492.92H1493.07L1491.94 1492.6V1492.57L1491.58 1492.48L1491.05 1492.33L1489.55 1491.88L1489.23 1491.79L1488.84 1491.67L1488.78 1491.64L1488.42 1491.55L1488.27 1491.52V1491.46L1487.77 1491.34L1488.21 1491.43L1488.42 1491.46L1488.78 1491.52L1489.14 1491.58L1489.44 1491.64L1490.84 1491.88V1491.91L1491.14 1491.97L1491.55 1492V1492.03L1492.36 1492.15H1492.45L1494.06 1492.48H1494.09L1496.59 1492.92L1499.72 1493.46L1501.99 1493.85L1505.57 1494.5L1515.62 1496.29L1672.03 1545.89Z" fill="url(#paint25_radial_430_147)"/>
<path d="M1672.03 1545.89L1519.82 1500.83L1513.32 1498.89L1504.64 1496.32H1504.58L1498.92 1494.62L1495.85 1493.73L1495.79 1493.7L1493.19 1492.95L1493.16 1492.92H1493.07L1491.94 1492.6V1492.57L1491.58 1492.48L1491.05 1492.33L1489.55 1491.88L1489.23 1491.79L1488.84 1491.67L1488.78 1491.64L1488.42 1491.55L1488.27 1491.52V1491.46L1487.77 1491.34L1488.21 1491.43L1488.42 1491.46L1488.78 1491.52L1489.14 1491.58L1489.44 1491.64L1490.84 1491.88V1491.91L1491.14 1491.97L1491.55 1492V1492.03L1492.36 1492.15H1492.45L1494.06 1492.48H1494.09L1496.59 1492.92L1499.72 1493.46L1501.99 1493.85L1505.57 1494.5L1515.62 1496.29L1672.03 1545.89Z" fill="url(#paint26_radial_430_147)"/>
<path d="M1686.43 1526.56L1515.74 1496.29H1515.62L1507.39 1493.67H1507.3L1499.19 1491.05H1499.13L1498.44 1490.87L1496.09 1490.09H1496.03L1495.94 1490.06L1494.54 1489.61L1494.33 1489.52H1494.3L1492.33 1488.93L1491.67 1488.72V1488.69H1491.61L1491.46 1488.63L1491.2 1488.57L1491.05 1488.51L1490.45 1488.3L1490.09 1488.18L1489.76 1488.09L1489.73 1488.06H1489.64L1489.47 1487.97H1489.44L1489.23 1487.94L1489.2 1487.91L1489.08 1487.85L1488.96 1487.82H1488.87L1488.66 1487.73L1488.57 1487.68L1488.3 1487.62H1488.27L1488.21 1487.59H1488.09L1487.89 1487.5L1487.74 1487.47L1487.65 1487.41L1487.41 1487.35L1487.2 1487.29V1487.26L1487.41 1487.29L1487.65 1487.38H1487.68L1487.94 1487.41L1488.06 1487.47H1488.21L1488.27 1487.5H1488.39L1488.51 1487.53L1488.78 1487.59L1488.99 1487.62H1489.05L1489.35 1487.68H1489.44L1489.64 1487.73H1489.67L1489.73 1487.79H1489.82L1490.06 1487.82L1490.12 1487.85H1490.33L1490.93 1488.03L1491.49 1488.09L1491.82 1488.18L1492.24 1488.27L1492.57 1488.36L1493.16 1488.42L1493.61 1488.57L1496.12 1489.02L1498.83 1489.55H1498.89L1500.41 1489.88L1503.99 1490.57L1509.86 1491.76H1509.92L1630.82 1515.56L1686.43 1526.56Z" fill="url(#paint27_radial_430_147)"/>
<path d="M1487.2 1487.26V1487.29H1487.17L1487.11 1487.26H1487.2Z" fill="url(#paint28_radial_430_147)"/>
<path d="M2978.96 1959.26V2150.95L1513.32 1498.89L1501.99 1493.85L1497.61 1491.91L1495.52 1490.99H1495.46L1495.19 1490.81L1495.07 1490.78L1494.06 1490.33L1493.73 1490.21L1493.04 1489.88L1491.82 1489.35L1491.67 1489.29L1491.37 1489.17L1491.14 1489.02L1490.99 1488.96L1490.66 1488.84L1489.88 1488.48L1489.73 1488.39L1489.61 1488.36L1489.53 1488.3H1489.47L1489.26 1488.18L1489.14 1488.15L1489.05 1488.09H1488.99L1488.96 1488.06L1488.87 1488.03L1488.72 1487.94L1488.27 1487.8L1488.21 1487.74L1488.15 1487.68H1488.09L1488.03 1487.65L1487.89 1487.59H1487.86L1487.65 1487.5H1487.59L1487.38 1487.38L1487.2 1487.29L1487.41 1487.35L1487.65 1487.41L1487.74 1487.47L1487.89 1487.5L1488.09 1487.59H1488.21L1488.27 1487.62H1488.3L1488.57 1487.68L1488.69 1487.74L1488.87 1487.82H1488.96L1489.08 1487.85L1489.2 1487.91L1489.23 1487.94L1489.44 1487.97H1489.47L1489.64 1488.06H1489.73L1489.76 1488.09L1490.09 1488.18L1490.45 1488.3L1491.05 1488.51L1491.2 1488.57L1491.46 1488.63L1491.61 1488.69H1491.67V1488.72L1492.33 1488.93L1494.3 1489.52H1494.33L1494.54 1489.61L1495.94 1490.06L1496.03 1490.09H1496.09L1498.47 1490.87L1499.13 1491.05H1499.19L1507.3 1493.67H1507.39L1515.62 1496.29H1515.74L1677.28 1547.41L2978.96 1959.26Z" fill="url(#paint29_radial_430_147)"/>
<path d="M1488.87 1487.11V1487.14L1488.75 1487.02L1488.87 1487.11Z" fill="url(#paint30_radial_430_147)"/>
<path d="M2978.96 2359.31V2600.62L1498.92 1494.62L1496.59 1492.92L1494.54 1491.37L1494.09 1491.05L1493.64 1490.69L1493.31 1490.48L1492.98 1490.21L1492.69 1489.97L1491.82 1489.35L1491.7 1489.23L1491.55 1489.14L1491.25 1488.93L1491.23 1488.87L1490.93 1488.69L1490.9 1488.63L1490.45 1488.3L1490.18 1488.09L1489.91 1487.91L1489.82 1487.85L1489.79 1487.82L1489.73 1487.79L1489.7 1487.74H1489.64V1487.68L1489.44 1487.59V1487.53L1489.14 1487.35L1489.11 1487.29L1489.05 1487.26L1488.9 1487.17L1488.87 1487.14L1489.05 1487.23L1489.2 1487.29L1489.44 1487.47H1489.47L1489.53 1487.5L1489.7 1487.59L1489.76 1487.62L1489.82 1487.68H1489.88L1490.06 1487.82L1490.12 1487.85L1490.27 1487.94L1491.14 1488.42L1491.25 1488.51L1491.46 1488.63L1491.58 1488.72H1491.67L1492.06 1488.96L1492.12 1488.99L1493.4 1489.76H1493.43L1494.09 1490.18L1494.3 1490.3H1494.33L1495.19 1490.81L1495.46 1490.99H1495.52L1496.86 1491.79H1496.89L1499.72 1493.46L1504.58 1496.32H1504.64L2978.96 2359.31Z" fill="url(#paint31_radial_430_147)"/>
<path d="M1487.23 1487.38L1487.32 1487.41H1487.29L1487.23 1487.38Z" fill="url(#paint32_radial_430_147)"/>
<path d="M1487.23 1487.38L1487.32 1487.41H1487.29L1487.23 1487.38Z" fill="url(#paint33_radial_430_147)"/>
<path d="M1487.11 1487.26L1487.17 1487.29H1487.11V1487.26Z" fill="url(#paint34_radial_430_147)"/>
<path d="M1487.2 1487.29L1487.23 1487.38H1487.2L1487.17 1487.29H1487.2Z" fill="url(#paint35_radial_430_147)"/>
<path d="M1487.35 1487.41H1487.29V1487.47H1487.35V1487.41Z" fill="url(#paint36_radial_430_147)"/>
<path d="M2978.96 2885.44V2978.93H2758.02L1492.98 1494.15L1492.95 1494.09L1491.58 1492.48L1491.13 1491.97L1490.48 1491.22L1490.45 1491.19L1490.27 1490.93L1490.09 1490.69L1489.94 1490.57L1489.82 1490.48L1489.79 1490.39L1489.73 1490.3L1489.55 1490.12L1489.41 1489.91L1489.23 1489.73L1489.2 1489.67L1489.14 1489.64L1489.08 1489.55L1488.9 1489.35L1488.87 1489.29H1488.84L1488.75 1489.17V1489.14L1488.63 1489.02L1488.57 1488.96L1488.51 1488.87L1488.42 1488.75L1488.33 1488.72L1488.3 1488.63L1488.21 1488.57L1487.88 1488.18L1487.82 1488.03L1487.74 1487.94H1487.68L1487.5 1487.68L1487.32 1487.47L1487.53 1487.65L1487.77 1487.85L1487.88 1487.94L1487.97 1488.06L1488.3 1488.36V1488.39L1488.63 1488.69L1488.75 1488.75V1488.81L1488.84 1488.87L1489.08 1489.08L1489.23 1489.23L1489.26 1489.29H1489.32L1489.35 1489.35L1489.41 1489.43H1489.46V1489.49H1489.52L1489.55 1489.52L1489.64 1489.61V1489.64H1489.7V1489.67H1489.73L1489.91 1489.85V1489.88L1490.12 1490.09L1490.42 1490.33H1490.45V1490.39L1490.6 1490.51L1490.81 1490.69V1490.75L1490.93 1490.81L1491.28 1491.19L1492.36 1492.15L1492.72 1492.54H1492.78L1493.16 1492.92L1493.19 1492.95L2978.96 2885.44Z" fill="url(#paint37_radial_430_147)"/>
<path d="M2497.2 2978.93H2269.73L1862.26 2200.96L1491.05 1492.33L1490.84 1491.88L1490.48 1491.22L1490.45 1491.19L1490.33 1490.93L1490.21 1490.66L1490.18 1490.63L1490.09 1490.51L1490.06 1490.39L1489.94 1490.18L1489.79 1489.91L1489.7 1489.67V1489.64H1489.64V1489.61L1489.61 1489.52L1489.55 1489.41H1489.52V1489.35L1489.43 1489.23L1489.41 1489.17V1489.14L1489.26 1488.87L1489.23 1488.84V1488.81L1489.11 1488.63L1489.05 1488.48V1488.42L1488.96 1488.27L1488.78 1487.97L1488.69 1487.74L1488.87 1488.03L1488.99 1488.18L1489.08 1488.36V1488.39H1489.11L1489.2 1488.57L1489.32 1488.69L1489.52 1488.96V1489.02H1489.55V1489.08H1489.61V1489.14L1489.73 1489.32L1489.79 1489.44L1489.88 1489.52V1489.55L1490.06 1489.76L1490.21 1490.06L1490.42 1490.33H1490.45V1490.39L1490.54 1490.51L1490.57 1490.57L1490.66 1490.69L1490.78 1490.87L1491.02 1491.19L1491.55 1492.03L1491.94 1492.57L1492.95 1494.09L1492.98 1494.15L2497.2 2978.93Z" fill="url(#paint38_radial_430_147)"/>
<path d="M1487.2 1487.38L1487.23 1487.53L1487.17 1487.29L1487.2 1487.38Z" fill="url(#paint39_radial_430_147)"/>
<path d="M1487.2 1487.38L1487.23 1487.53L1487.17 1487.29L1487.2 1487.38Z" fill="url(#paint40_radial_430_147)"/>
<path d="M2069.57 2978.93H1884.09L1489.44 1495.97V1495.94L1488.45 1492.21L1488.27 1491.46L1488.21 1491.43V1491.28L1488.18 1491.25V1491.14L1488.15 1491.11V1491.02L1488.09 1490.9L1488.06 1490.81V1490.69L1487.74 1489.61V1489.55L1487.59 1489.17V1489.02V1488.87L1487.53 1488.72L1487.5 1488.6L1487.47 1488.57V1488.39L1487.38 1488.18V1488.15L1487.32 1488.03L1487.29 1487.85L1487.23 1487.65L1487.2 1487.62V1487.59L1487.11 1487.35V1487.29H1487.17L1487.23 1487.53L1487.38 1487.91V1487.94H1487.41V1488.03L1487.47 1488.15L1487.53 1488.3L1487.59 1488.36V1488.51V1488.57L1487.65 1488.69H1487.68V1488.72L1487.77 1488.93V1488.96L1487.86 1489.17L1488.03 1489.52V1489.55L1488.27 1490.18V1490.21L1488.33 1490.39L1488.39 1490.48V1490.54L1488.45 1490.75L1488.51 1490.81L1488.54 1490.93L1488.63 1491.11L1488.69 1491.19L1488.72 1491.28L1488.75 1491.46L1488.78 1491.52L1488.84 1491.67L1489.91 1494.39V1494.42L2069.57 2978.93Z" fill="url(#paint41_radial_430_147)"/>
<path d="M1712.2 2978.93H1543.38L1488.45 1492.21L1488.42 1491.55V1491.19L1488.39 1491.02V1490.3L1488.33 1489.97V1488.96L1488.3 1488.63V1488.39L1488.33 1488.63V1488.72L1488.39 1488.99L1488.42 1489.14V1489.29L1488.51 1489.67L1488.54 1489.91V1490L1488.57 1490.24L1488.63 1490.57L1488.69 1490.75V1490.87L1488.72 1491.1L1488.75 1491.19V1491.46L1488.78 1491.52V1491.64L1489.44 1495.94V1495.97L1712.2 2978.93Z" fill="url(#paint42_radial_430_147)"/>
<path d="M1487.11 1487.35V1487.47L1487.08 1487.68V1487.97L1487.05 1488.39V1488.57L1486.99 1488.69V1489.17H1486.96V1489.44L1486.9 1489.76L1486.87 1490.69L1486.81 1491.7V1491.76L1486.54 1494.77V1494.83L1376.09 2978.93H1205.69L1485.44 1496.09V1496.06L1486.18 1492.3L1486.42 1490.93L1486.6 1489.97L1486.63 1489.91L1486.75 1489.2V1489.17L1486.81 1489.02V1488.87H1486.84V1488.63H1486.87L1486.9 1488.36L1486.99 1487.91V1487.85L1487.05 1487.65L1487.08 1487.41L1487.11 1487.35Z" fill="url(#paint43_radial_430_147)"/>
<path d="M1487.59 1489.02L1487.65 1488.93V1489.14H1487.59V1489.02Z" fill="url(#paint44_radial_430_147)"/>
<path d="M1487.68 1488.81V1488.93H1487.65V1488.87L1487.68 1488.81Z" fill="url(#paint45_radial_430_147)"/>
<path d="M1487.59 1489.02V1489.14L1487.5 1489.41V1489.49L1487.23 1490.3L1486.81 1491.7V1491.76L1485.44 1496.06V1496.09L1030.88 2978.93H840.65L1426.84 1628.94L1486.18 1492.3L1486.87 1490.69L1487.2 1489.88L1487.41 1489.49V1489.41L1487.47 1489.35L1487.59 1489.08V1489.02Z" fill="url(#paint46_radial_430_147)"/>
<path d="M1488.84 1485.38L1488.54 1485.86L1488.3 1486.3L1488.21 1486.45L1488.06 1486.69V1486.72L1488.03 1486.81V1486.87H1487.98L1487.95 1486.96L1487.68 1487.38L1487.65 1487.41V1487.5H1487.59V1487.59L1487.53 1487.65L1487.5 1487.68L1487.47 1487.82L1487.38 1487.91V1487.94L1487.32 1488.03L1487.29 1488.06L1487.23 1488.18L1487.08 1488.42L1487.05 1488.48V1488.57L1486.96 1488.69L1486.84 1488.87L1486.81 1488.93V1488.96L1486.75 1488.99V1489.02L1486.69 1489.17L1486.51 1489.43L1486.48 1489.49L1484.9 1492.24L1484.81 1492.33L1484.78 1492.36L635.157 2978.93H396.59L1483.29 1492.92L1485.68 1489.64H1485.74L1486.22 1488.96L1486.31 1488.84L1486.36 1488.81L1486.48 1488.63L1486.51 1488.57L1486.72 1488.27L1486.99 1487.91V1487.85L1487.08 1487.79V1487.74H1487.11V1487.68L1487.2 1487.62V1487.59L1487.23 1487.53L1487.29 1487.47H1487.32V1487.41L1487.38 1487.38L1487.41 1487.35V1487.29L1487.53 1487.17L1487.59 1487.05L1487.65 1486.96H1487.68L1487.74 1486.9L1487.86 1486.72L1487.98 1486.57L1488.03 1486.48L1488.21 1486.21L1488.54 1485.8L1488.84 1485.38Z" fill="url(#paint47_radial_430_147)"/>
<path d="M1488.75 1487.02L1488.63 1487.17L1488.42 1487.38V1487.41L1488.3 1487.5L1488.27 1487.53L1488.21 1487.59L1488.18 1487.62L1488.15 1487.68H1488.09L1488.03 1487.79L1487.94 1487.85L1487.88 1487.94L1487.85 1487.97L1487.68 1488.15L1487.65 1488.21L1487.59 1488.27V1488.3H1487.53L1487.5 1488.36L1487.47 1488.39V1488.42L1487.32 1488.57L1487.17 1488.72V1488.75L1486.96 1488.96H1486.9L1486.84 1489.08L1486.75 1489.17V1489.2L1486.51 1489.44L1486.48 1489.49L1483.29 1492.92L119.82 2978.93H0V2782.77L1485.68 1489.64H1485.74L1486.42 1489.02L1486.54 1488.93L1486.69 1488.81L1486.84 1488.69V1488.63H1486.87L1487.05 1488.51V1488.48L1487.08 1488.42H1487.11L1487.17 1488.39L1487.32 1488.27L1487.38 1488.18H1487.41L1487.47 1488.15L1487.5 1488.09L1487.53 1488.06H1487.59L1487.68 1487.94H1487.74L1487.77 1487.85L1487.85 1487.79L1487.94 1487.68L1488.03 1487.65L1488.09 1487.59L1488.18 1487.5L1488.21 1487.47L1488.27 1487.41L1488.39 1487.35L1488.57 1487.14L1488.75 1487.02Z" fill="url(#paint48_radial_430_147)"/>
<path d="M1488.84 1485.38L1488.51 1485.62L1488.21 1485.83L1488.09 1485.86L1487.94 1486.01L1487.77 1486.12L1487.74 1486.15L1487.5 1486.3L1487.05 1486.6L1486.81 1486.81L1486.69 1486.87V1486.9L1486.54 1486.96L1486.3 1487.14L1485.92 1487.41L1485.44 1487.68L1485.35 1487.79L1485.05 1488.03H1484.99V1488.06H1484.93L1484.69 1488.27L1484.37 1488.48L1482.28 1489.91H1482.25L0 2514.89V2284.88L1480.64 1489.76H1480.67L1483.41 1488.27L1484.04 1487.97L1484.19 1487.85L1484.28 1487.82H1484.34L1484.54 1487.68L1484.93 1487.5V1487.47L1486.04 1486.9L1486.12 1486.87L1486.39 1486.69L1486.63 1486.57L1486.87 1486.45L1487.05 1486.36L1487.11 1486.27H1487.2L1487.68 1486.01L1487.94 1485.86L1488.06 1485.8L1488.21 1485.71L1488.45 1485.59L1488.84 1485.38Z" fill="url(#paint49_radial_430_147)"/>
<path d="M1488.03 1486.87L1487.88 1486.9V1486.87H1488.03Z" fill="url(#paint50_radial_430_147)"/>
<path d="M1487.74 1486.9L1487.88 1486.87V1486.9L1487.68 1486.96L1487.41 1487.05L1487.05 1487.23H1486.99L1486.81 1487.29L1486.63 1487.38L1486.48 1487.47L1485.62 1487.8L1485.44 1487.85L1485.05 1488.03H1484.99V1488.06H1484.93L1484.57 1488.21L1484.07 1488.39L1480.67 1489.76H1480.64L0 2084.24V1898.04L709.738 1701.94L1483.02 1488.18L1483.98 1487.94L1484.19 1487.85H1484.28L1484.34 1487.82L1484.63 1487.8L1485.14 1487.62L1485.23 1487.59L1485.92 1487.41L1486.42 1487.26H1486.48L1486.72 1487.17H1486.81L1486.96 1487.14V1487.11L1487.38 1487.02L1487.74 1486.9Z" fill="url(#paint51_radial_430_147)"/>
<path d="M1488.03 1486.81V1486.87H1487.88L1488.03 1486.81Z" fill="url(#paint52_radial_430_147)"/>
<path d="M1488.84 1485.38L1488.45 1485.47L1488.18 1485.53H1487.97L1487.88 1485.56L1487.59 1485.59H1487.5L1486.3 1485.8H1486.27L1485.8 1485.86L1485.68 1485.92L1485.38 1485.95H1485.35L1484.81 1486.04L1484.28 1486.12L1483.29 1486.27L1482.55 1486.39L1482.34 1486.45L1481.12 1486.66H1481L1480.7 1486.69H1480.67L1477.75 1487.17L0 1724.78V1555.82L1472.65 1486.15L1478.1 1485.86H1478.19L1479.24 1485.83H1479.68L1481.09 1485.77H1481.14L1482.55 1485.68L1483.65 1485.62L1484.28 1485.59L1485.02 1485.56H1485.59L1486.12 1485.53L1487.41 1485.47H1487.53L1487.85 1485.44H1488.18L1488.42 1485.38H1488.84Z" fill="url(#paint53_radial_430_147)"/>
<path d="M1487.5 1486.3L1487.11 1486.27H1486.75L1486.51 1486.24H1486.01L1485.86 1486.21H1485.53L1485.02 1486.16L1484.28 1486.13L1482.99 1486.04L1481.53 1485.95H1481.47L1481.44 1485.92L1479.68 1485.83H1479.65L1479.09 1485.8L1477.54 1485.68H1477.42L1466.8 1484.99H1466.74L0 1391.35V1221.97L1346.38 1461.22L1469.22 1483.08L1469.4 1483.11L1475.54 1484.22L1478.97 1484.81L1479.8 1484.93L1482.07 1485.35L1483.65 1485.62L1484.54 1485.8L1485.35 1485.95H1485.38L1485.8 1486.01V1486.04H1485.95L1486.27 1486.13H1486.42L1486.63 1486.16L1487.2 1486.27L1487.5 1486.3Z" fill="url(#paint54_radial_430_147)"/>
<path d="M1488.84 1485.38L1460.99 1480.43L1304.49 1430.84L1488.84 1485.38Z" fill="url(#paint55_radial_430_147)"/>
<defs>
<radialGradient id="paint0_radial_430_147" cx="0" cy="0" r="1" gradientUnits="userSpaceOnUse" gradientTransform="translate(1389.83 1469.83) rotate(97.0826) scale(20.6217 102.973)">
<stop stop-color="white" stop-opacity="0.17"/>
<stop offset="1" stop-color="white" stop-opacity="0.04"/>
</radialGradient>
<radialGradient id="paint1_radial_430_147" cx="0" cy="0" r="1" gradientUnits="userSpaceOnUse" gradientTransform="translate(744.703 1158.12) rotate(93.1545) scale(345.268 774.19)">
<stop stop-color="white" stop-opacity="0.17"/>
<stop offset="1" stop-color="white" stop-opacity="0.04"/>
</radialGradient>
<radialGradient id="paint2_radial_430_147" cx="0" cy="0" r="1" gradientUnits="userSpaceOnUse" gradientTransform="translate(1489.42 1489.47) rotate(90.7002) scale(0.0318678 0.0158925)">
<stop stop-color="white" stop-opacity="0.17"/>
<stop offset="1" stop-color="white" stop-opacity="0.04"/>
</radialGradient>
<radialGradient id="paint3_radial_430_147" cx="0" cy="0" r="1" gradientUnits="userSpaceOnUse" gradientTransform="translate(1487.66 1489.57) rotate(92.341) scale(0.0470061 0.0782916)">
<stop stop-color="white" stop-opacity="0.17"/>
<stop offset="1" stop-color="white" stop-opacity="0.04"/>
</radialGradient>
<radialGradient id="paint4_radial_430_147" cx="0" cy="0" r="1" gradientUnits="userSpaceOnUse" gradientTransform="translate(743.868 933.707) rotate(91.8793) scale(578.697 774.079)">
<stop stop-color="white" stop-opacity="0.17"/>
<stop offset="1" stop-color="white" stop-opacity="0.04"/>
</radialGradient>
<radialGradient id="paint5_radial_430_147" cx="0" cy="0" r="1" gradientUnits="userSpaceOnUse" gradientTransform="translate(1487.75 1489.59) rotate(90.7013) scale(0.0318192 0.0158925)">
<stop stop-color="white" stop-opacity="0.17"/>
<stop offset="1" stop-color="white" stop-opacity="0.04"/>
</radialGradient>
<radialGradient id="paint6_radial_430_147" cx="0" cy="0" r="1" gradientUnits="userSpaceOnUse" gradientTransform="translate(744.613 744.613) rotate(91.4045) scale(775.039 775.039)">
<stop stop-color="white" stop-opacity="0.17"/>
<stop offset="1" stop-color="white" stop-opacity="0.04"/>
</radialGradient>
<radialGradient id="paint7_radial_430_147" cx="0" cy="0" r="1" gradientUnits="userSpaceOnUse" gradientTransform="translate(1489.3 1489.32) rotate(92.1074) scale(0.0317059 0.0475473)">
<stop stop-color="white" stop-opacity="0.17"/>
<stop offset="1" stop-color="white" stop-opacity="0.04"/>
</radialGradient>
<radialGradient id="paint8_radial_430_147" cx="0" cy="0" r="1" gradientUnits="userSpaceOnUse" gradientTransform="translate(1489.39 1489.39) rotate(91.4045) scale(0.0475652)">
<stop stop-color="white" stop-opacity="0.17"/>
<stop offset="1" stop-color="white" stop-opacity="0.04"/>
</radialGradient>
<radialGradient id="paint9_radial_430_147" cx="0" cy="0" r="1" gradientUnits="userSpaceOnUse" gradientTransform="translate(1489.47 1489.47) rotate(91.4045) scale(0.031875)">
<stop stop-color="white" stop-opacity="0.17"/>
<stop offset="1" stop-color="white" stop-opacity="0.04"/>
</radialGradient>
<radialGradient id="paint10_radial_430_147" cx="0" cy="0" r="1" gradientUnits="userSpaceOnUse" gradientTransform="translate(1487.81 1488.82) rotate(91.4045) scale(0.139363)">
<stop stop-color="white" stop-opacity="0.17"/>
<stop offset="1" stop-color="white" stop-opacity="0.04"/>
</radialGradient>
<radialGradient id="paint11_radial_430_147" cx="0" cy="0" r="1" gradientUnits="userSpaceOnUse" gradientTransform="translate(984.449 744.479) rotate(90.95) scale(774.773 524.155)">
<stop stop-color="white" stop-opacity="0.17"/>
<stop offset="1" stop-color="white" stop-opacity="0.04"/>
</radialGradient>
<radialGradient id="paint12_radial_430_147" cx="0" cy="0" r="1" gradientUnits="userSpaceOnUse" gradientTransform="translate(1198.64 744.569) rotate(90.5486) scale(774.795 302.727)">
<stop stop-color="white" stop-opacity="0.17"/>
<stop offset="1" stop-color="white" stop-opacity="0.04"/>
</radialGradient>
<radialGradient id="paint13_radial_430_147" cx="0" cy="0" r="1" gradientUnits="userSpaceOnUse" gradientTransform="translate(1489.42 1489.18) rotate(90.4668) scale(0.0476008 0.015827)">
<stop stop-color="white" stop-opacity="0.17"/>
<stop offset="1" stop-color="white" stop-opacity="0.04"/>
</radialGradient>
<radialGradient id="paint14_radial_430_147" cx="0" cy="0" r="1" gradientUnits="userSpaceOnUse" gradientTransform="translate(1489.48 1489.33) rotate(90.6022) scale(0.108799 0.0466646)">
<stop stop-color="white" stop-opacity="0.17"/>
<stop offset="1" stop-color="white" stop-opacity="0.04"/>
</radialGradient>
<radialGradient id="paint15_radial_430_147" cx="0" cy="0" r="1" gradientUnits="userSpaceOnUse" gradientTransform="translate(1376.5 744.181) rotate(90.211) scale(774.361 116.401)">
<stop stop-color="white" stop-opacity="0.17"/>
<stop offset="1" stop-color="white" stop-opacity="0.04"/>
</radialGradient>
<radialGradient id="paint16_radial_430_147" cx="0" cy="0" r="1" gradientUnits="userSpaceOnUse" gradientTransform="translate(1630.01 744.673) rotate(90.265) scale(774.876 146.269)">
<stop stop-color="white" stop-opacity="0.17"/>
<stop offset="1" stop-color="white" stop-opacity="0.04"/>
</radialGradient>
<radialGradient id="paint17_radial_430_147" cx="0" cy="0" r="1" gradientUnits="userSpaceOnUse" gradientTransform="translate(1489 1487.72) rotate(90.602) scale(0.108846 0.0466646)">
<stop stop-color="white" stop-opacity="0.17"/>
<stop offset="1" stop-color="white" stop-opacity="0.04"/>
</radialGradient>
<radialGradient id="paint18_radial_430_147" cx="0" cy="0" r="1" gradientUnits="userSpaceOnUse" gradientTransform="translate(1812.01 743.808) rotate(90.6099) scale(774.012 336.239)">
<stop stop-color="white" stop-opacity="0.17"/>
<stop offset="1" stop-color="white" stop-opacity="0.04"/>
</radialGradient>
<radialGradient id="paint19_radial_430_147" cx="0" cy="0" r="1" gradientUnits="userSpaceOnUse" gradientTransform="translate(2033.06 745.672) rotate(91.0272) scale(776.032 567.651)">
<stop stop-color="white" stop-opacity="0.17"/>
<stop offset="1" stop-color="white" stop-opacity="0.04"/>
</radialGradient>
<radialGradient id="paint20_radial_430_147" cx="0" cy="0" r="1" gradientUnits="userSpaceOnUse" gradientTransform="translate(2233.5 744.777) rotate(91.4058) scale(775.21 775.923)">
<stop stop-color="white" stop-opacity="0.17"/>
<stop offset="1" stop-color="white" stop-opacity="0.04"/>
</radialGradient>
<radialGradient id="paint21_radial_430_147" cx="0" cy="0" r="1" gradientUnits="userSpaceOnUse" gradientTransform="translate(2233.36 975.8) rotate(92.0309) scale(536.785 775.809)">
<stop stop-color="white" stop-opacity="0.17"/>
<stop offset="1" stop-color="white" stop-opacity="0.04"/>
</radialGradient>
<radialGradient id="paint22_radial_430_147" cx="0" cy="0" r="1" gradientUnits="userSpaceOnUse" gradientTransform="translate(2233.84 1190.7) rotate(93.4945) scale(311.889 774.357)">
<stop stop-color="white" stop-opacity="0.17"/>
<stop offset="1" stop-color="white" stop-opacity="0.04"/>
</radialGradient>
<radialGradient id="paint23_radial_430_147" cx="0" cy="0" r="1" gradientUnits="userSpaceOnUse" gradientTransform="translate(2233.36 1371.43) rotate(98.6684) scale(126.214 767.429)">
<stop stop-color="white" stop-opacity="0.17"/>
<stop offset="1" stop-color="white" stop-opacity="0.04"/>
</radialGradient>
<radialGradient id="paint24_radial_430_147" cx="0" cy="0" r="1" gradientUnits="userSpaceOnUse" gradientTransform="translate(2234.03 1622.82) rotate(97.8541) scale(139.078 768.322)">
<stop stop-color="white" stop-opacity="0.17"/>
<stop offset="1" stop-color="white" stop-opacity="0.04"/>
</radialGradient>
<radialGradient id="paint25_radial_430_147" cx="0" cy="0" r="1" gradientUnits="userSpaceOnUse" gradientTransform="translate(1579.9 1518.61) rotate(94.7352) scale(28.4742 95.5977)">
<stop stop-color="white" stop-opacity="0.17"/>
<stop offset="1" stop-color="white" stop-opacity="0.04"/>
</radialGradient>
<radialGradient id="paint26_radial_430_147" cx="0" cy="0" r="1" gradientUnits="userSpaceOnUse" gradientTransform="translate(1579.9 1518.61) rotate(94.7352) scale(28.4742 95.5977)">
<stop stop-color="white" stop-opacity="0.17"/>
<stop offset="1" stop-color="white" stop-opacity="0.04"/>
</radialGradient>
<radialGradient id="paint27_radial_430_147" cx="0" cy="0" r="1" gradientUnits="userSpaceOnUse" gradientTransform="translate(1586.82 1506.91) rotate(97.0848) scale(20.6062 102.926)">
<stop stop-color="white" stop-opacity="0.17"/>
<stop offset="1" stop-color="white" stop-opacity="0.04"/>
</radialGradient>
<radialGradient id="paint28_radial_430_147" cx="0" cy="0" r="1" gradientUnits="userSpaceOnUse" gradientTransform="translate(1487.16 1487.27) rotate(94.2154) scale(0.015861 0.0474508)">
<stop stop-color="white" stop-opacity="0.17"/>
<stop offset="1" stop-color="white" stop-opacity="0.04"/>
</radialGradient>
<radialGradient id="paint29_radial_430_147" cx="0" cy="0" r="1" gradientUnits="userSpaceOnUse" gradientTransform="translate(2233.08 1819.12) rotate(93.1545) scale(345.811 775.415)">
<stop stop-color="white" stop-opacity="0.17"/>
<stop offset="1" stop-color="white" stop-opacity="0.04"/>
</radialGradient>
<radialGradient id="paint30_radial_430_147" cx="0" cy="0" r="1" gradientUnits="userSpaceOnUse" gradientTransform="translate(1488.81 1487.08) rotate(91.4035) scale(0.0629917 0.0629438)">
<stop stop-color="white" stop-opacity="0.17"/>
<stop offset="1" stop-color="white" stop-opacity="0.04"/>
</radialGradient>
<radialGradient id="paint31_radial_430_147" cx="0" cy="0" r="1" gradientUnits="userSpaceOnUse" gradientTransform="translate(2233.91 2043.88) rotate(91.8793) scale(579.628 775.305)">
<stop stop-color="white" stop-opacity="0.17"/>
<stop offset="1" stop-color="white" stop-opacity="0.04"/>
</radialGradient>
<radialGradient id="paint32_radial_430_147" cx="0" cy="0" r="1" gradientUnits="userSpaceOnUse" gradientTransform="translate(1487.27 1487.39) rotate(94.2026) scale(0.0159092 0.0474515)">
<stop stop-color="white" stop-opacity="0.17"/>
<stop offset="1" stop-color="white" stop-opacity="0.04"/>
</radialGradient>
<radialGradient id="paint33_radial_430_147" cx="0" cy="0" r="1" gradientUnits="userSpaceOnUse" gradientTransform="translate(1487.27 1487.39) rotate(94.2026) scale(0.0159092 0.0474515)">
<stop stop-color="white" stop-opacity="0.17"/>
<stop offset="1" stop-color="white" stop-opacity="0.04"/>
</radialGradient>
<radialGradient id="paint34_radial_430_147" cx="0" cy="0" r="1" gradientUnits="userSpaceOnUse" gradientTransform="translate(1487.14 1487.27) rotate(92.816) scale(0.0159033 0.031846)">
<stop stop-color="white" stop-opacity="0.17"/>
<stop offset="1" stop-color="white" stop-opacity="0.04"/>
</radialGradient>
<radialGradient id="paint35_radial_430_147" cx="0" cy="0" r="1" gradientUnits="userSpaceOnUse" gradientTransform="translate(1487.2 1487.33) rotate(90.936) scale(0.0475572 0.0316993)">
<stop stop-color="white" stop-opacity="0.17"/>
<stop offset="1" stop-color="white" stop-opacity="0.04"/>
</radialGradient>
<radialGradient id="paint36_radial_430_147" cx="0" cy="0" r="1" gradientUnits="userSpaceOnUse" gradientTransform="translate(1487.32 1487.44) rotate(91.4067) scale(0.0318264 0.0318749)">
<stop stop-color="white" stop-opacity="0.17"/>
<stop offset="1" stop-color="white" stop-opacity="0.04"/>
</radialGradient>
<radialGradient id="paint37_radial_430_147" cx="0" cy="0" r="1" gradientUnits="userSpaceOnUse" gradientTransform="translate(2233.14 2233.2) rotate(91.4047) scale(776.203 776.296)">
<stop stop-color="white" stop-opacity="0.17"/>
<stop offset="1" stop-color="white" stop-opacity="0.04"/>
</radialGradient>
<radialGradient id="paint38_radial_430_147" cx="0" cy="0" r="1" gradientUnits="userSpaceOnUse" gradientTransform="translate(1992.95 2233.33) rotate(90.95) scale(775.937 524.947)">
<stop stop-color="white" stop-opacity="0.17"/>
<stop offset="1" stop-color="white" stop-opacity="0.04"/>
</radialGradient>
<radialGradient id="paint39_radial_430_147" cx="0" cy="0" r="1" gradientUnits="userSpaceOnUse" gradientTransform="translate(1487.2 1487.41) rotate(90.3509) scale(0.123932 0.0309768)">
<stop stop-color="white" stop-opacity="0.17"/>
<stop offset="1" stop-color="white" stop-opacity="0.04"/>
</radialGradient>
<radialGradient id="paint40_radial_430_147" cx="0" cy="0" r="1" gradientUnits="userSpaceOnUse" gradientTransform="translate(1487.2 1487.41) rotate(90.3509) scale(0.123932 0.0309768)">
<stop stop-color="white" stop-opacity="0.17"/>
<stop offset="1" stop-color="white" stop-opacity="0.04"/>
</radialGradient>
<radialGradient id="paint41_radial_430_147" cx="0" cy="0" r="1" gradientUnits="userSpaceOnUse" gradientTransform="translate(1778.34 2233.11) rotate(90.5485) scale(776.098 303.208)">
<stop stop-color="white" stop-opacity="0.17"/>
<stop offset="1" stop-color="white" stop-opacity="0.04"/>
</radialGradient>
<radialGradient id="paint42_radial_430_147" cx="0" cy="0" r="1" gradientUnits="userSpaceOnUse" gradientTransform="translate(1600.25 2233.66) rotate(90.211) scale(775.494 116.556)">
<stop stop-color="white" stop-opacity="0.17"/>
<stop offset="1" stop-color="white" stop-opacity="0.04"/>
</radialGradient>
<radialGradient id="paint43_radial_430_147" cx="0" cy="0" r="1" gradientUnits="userSpaceOnUse" gradientTransform="translate(1346.4 2233.14) rotate(90.265) scale(776.04 146.502)">
<stop stop-color="white" stop-opacity="0.17"/>
<stop offset="1" stop-color="white" stop-opacity="0.04"/>
</radialGradient>
<radialGradient id="paint44_radial_430_147" cx="0" cy="0" r="1" gradientUnits="userSpaceOnUse" gradientTransform="translate(1487.62 1489.03) rotate(90.4013) scale(0.108796 0.0310948)">
<stop stop-color="white" stop-opacity="0.17"/>
<stop offset="1" stop-color="white" stop-opacity="0.04"/>
</radialGradient>
<radialGradient id="paint45_radial_430_147" cx="0" cy="0" r="1" gradientUnits="userSpaceOnUse" gradientTransform="translate(1487.66 1488.87) rotate(90.3515) scale(0.062974 0.0157644)">
<stop stop-color="white" stop-opacity="0.17"/>
<stop offset="1" stop-color="white" stop-opacity="0.04"/>
</radialGradient>
<radialGradient id="paint46_radial_430_147" cx="0" cy="0" r="1" gradientUnits="userSpaceOnUse" gradientTransform="translate(1164.12 2233.97) rotate(90.61) scale(775.207 336.767)">
<stop stop-color="white" stop-opacity="0.17"/>
<stop offset="1" stop-color="white" stop-opacity="0.04"/>
</radialGradient>
<radialGradient id="paint47_radial_430_147" cx="0" cy="0" r="1" gradientUnits="userSpaceOnUse" gradientTransform="translate(942.715 2232.15) rotate(91.0273) scale(777.181 568.52)">
<stop stop-color="white" stop-opacity="0.17"/>
<stop offset="1" stop-color="white" stop-opacity="0.04"/>
</radialGradient>
<radialGradient id="paint48_radial_430_147" cx="0" cy="0" r="1" gradientUnits="userSpaceOnUse" gradientTransform="translate(744.375 2232.97) rotate(91.4016) scale(776.435 774.792)">
<stop stop-color="white" stop-opacity="0.17"/>
<stop offset="1" stop-color="white" stop-opacity="0.04"/>
</radialGradient>
<radialGradient id="paint49_radial_430_147" cx="0" cy="0" r="1" gradientUnits="userSpaceOnUse" gradientTransform="translate(744.419 2000.13) rotate(92.0308) scale(535.963 774.583)">
<stop stop-color="white" stop-opacity="0.17"/>
<stop offset="1" stop-color="white" stop-opacity="0.04"/>
</radialGradient>
<radialGradient id="paint50_radial_430_147" cx="0" cy="0" r="1" gradientUnits="userSpaceOnUse" gradientTransform="translate(1487.96 1486.89) rotate(97.0019) scale(0.0157412 0.0777251)">
<stop stop-color="white" stop-opacity="0.17"/>
<stop offset="1" stop-color="white" stop-opacity="0.04"/>
</radialGradient>
<radialGradient id="paint51_radial_430_147" cx="0" cy="0" r="1" gradientUnits="userSpaceOnUse" gradientTransform="translate(743.942 1785.56) rotate(93.4947) scale(311.376 773.133)">
<stop stop-color="white" stop-opacity="0.17"/>
<stop offset="1" stop-color="white" stop-opacity="0.04"/>
</radialGradient>
<radialGradient id="paint52_radial_430_147" cx="0" cy="0" r="1" gradientUnits="userSpaceOnUse" gradientTransform="translate(1487.96 1486.84) rotate(93.5034) scale(0.0314017 0.0781628)">
<stop stop-color="white" stop-opacity="0.17"/>
<stop offset="1" stop-color="white" stop-opacity="0.04"/>
</radialGradient>
<radialGradient id="paint53_radial_430_147" cx="0" cy="0" r="1" gradientUnits="userSpaceOnUse" gradientTransform="translate(744.419 1605.08) rotate(98.6698) scale(125.994 766.214)">
<stop stop-color="white" stop-opacity="0.17"/>
<stop offset="1" stop-color="white" stop-opacity="0.04"/>
</radialGradient>
<radialGradient id="paint54_radial_430_147" cx="0" cy="0" r="1" gradientUnits="userSpaceOnUse" gradientTransform="translate(743.748 1354.14) rotate(97.8559) scale(138.828 767.104)">
<stop stop-color="white" stop-opacity="0.17"/>
<stop offset="1" stop-color="white" stop-opacity="0.04"/>
</radialGradient>
<radialGradient id="paint55_radial_430_147" cx="0" cy="0" r="1" gradientUnits="userSpaceOnUse" gradientTransform="translate(1396.66 1458.11) rotate(94.7375) scale(28.4743 95.6438)">
<stop stop-color="white" stop-opacity="0.17"/>
<stop offset="1" stop-color="white" stop-opacity="0.04"/>
</radialGradient>
</defs>
</svg>
