<svg width="68" height="67" viewBox="0 0 68 67" fill="none" xmlns="http://www.w3.org/2000/svg">
<path d="M58.9084 23.9796C59.5182 23.0078 59.324 22.3986 59.0485 22.0577C58.669 21.5827 57.9147 21.3434 56.9345 21.3724C54.6805 21.4449 52.3859 21.4304 50.159 21.4159C49.215 21.4087 48.2664 21.4014 47.3223 21.4014H46.5861L46.6177 21.2854C46.6674 21.1004 46.708 20.9445 46.7577 20.7922L48.8084 14.2108C50.0596 10.1967 51.3108 6.18255 52.5575 2.1648C52.7834 1.43595 52.7201 0.906532 52.3678 0.543919C52.0155 0.17768 51.3967 0 50.4752 0C44.1243 0 35.1761 0 28.8252 0C27.4882 0 27.0049 0.279212 26.5803 1.30541C26.5125 1.51572 19.5338 22.3914 16.1506 32.6605C15.884 33.2987 15.9428 33.8789 16.3222 34.2923C16.5842 34.5824 17.1172 34.9124 18.2058 34.9124C22.1898 34.8725 26.2415 34.8797 30.1623 34.887C31.6935 34.887 33.2293 34.8906 34.7606 34.8906H35.5601C35.5465 35.003 35.5375 35.0937 35.5194 35.1807L32.8454 48.0426C31.8155 52.9959 30.7856 57.9492 29.7648 62.8988L29.697 63.2179C29.5434 63.954 29.3853 64.7192 29.286 65.477C29.2002 66.1515 29.6654 66.7208 30.4739 66.9275C30.6456 66.971 30.8218 66.9927 30.9934 66.9927C31.5761 66.9927 32.1317 66.7462 32.493 66.3038C32.6285 66.1334 32.7415 65.952 32.8499 65.7744L32.9402 65.6293C35.4472 61.6043 37.9541 57.5793 40.461 53.5543C41.9878 51.0994 43.5145 48.6445 45.0413 46.186C49.5718 38.8975 54.2559 31.3624 58.9129 23.9723L58.9084 23.9796ZM39.0201 32.617C38.6723 32.2871 38.1077 32.1021 37.4346 32.1021C35.8853 32.0985 34.336 32.0985 32.7866 32.0985C31.8832 32.0985 30.9844 32.0985 30.081 32.0985H20.0803L29.6654 2.83563H48.6955L48.6142 3.1221C48.5193 3.45933 48.429 3.78568 48.3251 4.11203L47.0287 8.28933C45.6285 12.7894 44.183 17.4453 42.7331 22.0142C42.5162 22.6923 42.6066 23.2616 42.9996 23.6532C43.3835 24.0412 44.0385 24.2371 44.9057 24.2189C47.2681 24.1718 49.5989 24.1827 52.0652 24.1899C52.9686 24.1899 53.8765 24.1972 54.8025 24.1972L34.6476 56.564L36.8745 45.8705C37.7102 41.8528 38.5458 37.835 39.3724 33.8137C39.4718 33.3423 39.3498 32.9289 39.0201 32.617Z" fill="url(#paint0_linear_430_268)"/>
<path d="M58.949 47.9302C58.145 47.7054 57.4223 47.9374 56.8035 48.6228C51.9748 53.9387 47.1506 59.2546 42.3355 64.5741C41.9516 64.9984 41.7935 65.4408 41.8748 65.8542C41.9425 66.2023 42.1819 66.5069 42.5659 66.7281C42.8776 66.9094 43.2118 67 43.5506 67C44.1333 67 44.716 66.7317 45.1812 66.224C50.0099 60.9117 54.834 55.5922 59.6537 50.2727C59.8344 50.0732 59.9563 49.8484 60.0512 49.6816C60.0828 49.6236 60.1099 49.5765 60.1325 49.5366L60.1551 49.4604C60.1822 48.7424 59.7124 48.1405 58.9535 47.9302H58.949Z" fill="url(#paint1_linear_430_268)"/>
<path d="M21.5393 65.1869C21.4444 64.9984 21.3405 64.7881 21.205 64.5814C20.4688 63.4573 19.7189 62.3368 18.9736 61.2163L16.3764 57.3037C14.1947 54.0184 12.0084 50.7295 9.8222 47.4479C9.44729 46.8858 8.99559 46.5377 8.47613 46.4145C8.06961 46.3165 7.64952 46.3637 7.22493 46.5522C6.6603 46.8024 5.85176 47.4261 6.75516 48.8186L8.63875 51.6542C11.769 56.3682 14.9038 61.0821 18.0386 65.7961L18.0883 65.8686C18.2374 66.0935 18.3909 66.3219 18.6032 66.5177C18.951 66.8332 19.3756 66.9964 19.8409 66.9964C20.0622 66.9964 20.2971 66.9601 20.532 66.884C21.2186 66.6628 21.589 66.2059 21.6612 65.4806V65.4371L21.6432 65.3972C21.607 65.332 21.5754 65.2631 21.5348 65.1869H21.5393Z" fill="url(#paint2_linear_430_268)"/>
<path d="M67.3054 39.434C66.4517 38.9409 65.4264 39.1331 64.6901 39.9308C64.1345 40.5291 63.5925 41.1347 63.0459 41.7403L62.4587 42.3893C62.3051 42.5598 62.147 42.7302 61.9844 42.9006C61.6095 43.2995 61.2255 43.7129 60.8868 44.148C60.5525 44.5795 60.5209 45.0908 60.81 45.5187C61.1352 46.0046 61.8128 46.3056 62.6213 46.3201H62.6439H62.6665C63.2492 46.2367 63.6196 45.8523 63.9177 45.5404C65.0334 44.3765 66.1175 43.1617 67.1654 41.9905L67.5222 41.588C68.2359 40.7902 68.1456 39.9236 67.3009 39.434H67.3054Z" fill="url(#paint3_linear_430_268)"/>
<path d="M6.42996 42.3712C5.39556 40.7104 4.27083 39.0533 3.3042 37.65C2.79829 36.9103 1.85424 36.6601 0.959875 37.0227C0.526243 37.2003 0.214571 37.4832 0.0790607 37.824C-0.0654832 38.1867 -0.0112793 38.5855 0.237155 38.9771C1.19024 40.4602 2.22463 42.0521 3.34033 43.6222C3.56618 43.9413 3.90044 44.3148 4.49668 44.3946H4.5283C4.5283 44.3946 4.56895 44.3946 4.58702 44.3946C5.3775 44.3946 6.02794 44.1408 6.38027 43.6947C6.69194 43.2995 6.71001 42.8172 6.42996 42.3676V42.3712Z" fill="url(#paint4_linear_430_268)"/>
<defs>
<linearGradient id="paint0_linear_430_268" x1="34.8935" y1="66.4928" x2="56.5636" y2="23.5819" gradientUnits="userSpaceOnUse">
<stop stop-color="#DE003B"/>
<stop offset="1" stop-color="#F90078"/>
</linearGradient>
<linearGradient id="paint1_linear_430_268" x1="49.8412" y1="66.8571" x2="54.5529" y2="53.0707" gradientUnits="userSpaceOnUse">
<stop stop-color="#DE003B"/>
<stop offset="1" stop-color="#F90078"/>
</linearGradient>
<linearGradient id="paint2_linear_430_268" x1="13.0317" y1="66.8424" x2="19.1462" y2="52.9477" gradientUnits="userSpaceOnUse">
<stop stop-color="#DE003B"/>
<stop offset="1" stop-color="#F90078"/>
</linearGradient>
<linearGradient id="paint3_linear_430_268" x1="63.8374" y1="46.2667" x2="65.4915" y2="41.0372" gradientUnits="userSpaceOnUse">
<stop stop-color="#DE003B"/>
<stop offset="1" stop-color="#F90078"/>
</linearGradient>
<linearGradient id="paint4_linear_430_268" x1="2.89239" y1="44.3383" x2="4.86947" y2="39.0143" gradientUnits="userSpaceOnUse">
<stop stop-color="#DE003B"/>
<stop offset="1" stop-color="#F90078"/>
</linearGradient>
</defs>
</svg>
