<svg width="68" height="67" viewBox="0 0 68 67" fill="none" xmlns="http://www.w3.org/2000/svg">
<path d="M67.5805 41.0173C66.5886 38.7628 64.4127 37.4173 61.7546 37.4137C59.516 37.4137 57.2813 37.4137 55.0427 37.4137H52.2474H52.1024C52.02 37.4137 51.9377 37.4137 51.8554 37.4137C51.8436 37.4137 51.8358 37.4137 51.8318 37.4137C51.8318 37.4065 51.8318 37.3957 51.8318 37.3812C51.8436 36.9087 51.8514 36.4037 51.8318 35.8987C51.8279 35.7688 51.8554 35.7147 52.0357 35.6318C54.7683 34.4017 56.7834 32.5151 58.0302 30.0226C58.2693 29.5428 58.4771 29.4238 59.0299 29.4526H59.1201C59.9081 29.4959 60.7196 29.532 61.5351 29.2759C63.3542 28.6987 64.499 27.53 64.844 25.8959C65.236 24.0527 64.5852 22.4907 62.97 21.3761C62.7152 21.203 62.6367 21.0587 62.6328 20.7629C62.6054 18.9268 62.5583 17.0367 62.4878 15.1429C62.4799 14.9084 62.5113 14.8507 62.6995 14.7497C66.42 12.7549 67.9804 8.66077 66.4122 5.0139C64.7421 1.12895 60.061 -0.901896 55.7563 0.389479C53.6823 1.01352 52.071 2.22554 50.9693 4.00028C50.8831 4.13735 50.8439 4.16621 50.6322 4.13735L49.8598 4.04357C48.7817 3.9101 47.6683 3.77303 46.5627 3.70088C44.8573 3.59267 42.9989 3.70088 40.878 4.03635C39.6312 4.23475 38.5688 4.48004 37.6279 4.78665C35.1854 5.58384 33.1193 6.94736 31.4883 8.83752C29.6183 11.0091 28.6068 13.4187 28.4852 16.0014C28.4304 17.1882 28.4382 18.393 28.4421 19.5545C28.4421 19.9837 28.446 20.413 28.446 20.8387C28.446 21.0695 28.4029 21.1597 28.2461 21.2535C26.5211 22.2887 25.7174 24.3412 26.2898 26.2422C26.8269 28.0206 28.7518 29.4346 30.6768 29.4598C31.0806 29.4671 31.4844 29.4598 31.8882 29.4671H32.3979C32.5469 29.4671 32.6998 29.4671 32.7233 29.4707C32.7507 29.4995 32.8096 29.6222 32.8644 29.7412C33.3114 30.7079 33.9151 31.6278 34.6679 32.4682C35.8989 33.8498 37.3809 34.9211 39.0628 35.6498C39.1882 35.7039 39.2117 35.74 39.2078 35.8626C39.1961 36.1692 39.1961 36.4758 39.2 36.7788C39.2 36.9267 39.2 37.071 39.2 37.2189C39.2 37.2838 39.2 37.3524 39.2 37.4065C39.1412 37.4065 39.0667 37.4065 39.0039 37.4065C38.3571 37.4065 37.7063 37.4065 37.0594 37.4029C35.5813 37.3993 34.0524 37.3921 32.5469 37.4209C31.6491 37.4426 30.9199 37.273 30.1985 36.8871C26.9876 35.17 23.9022 33.8101 20.7579 32.7352C19.8288 32.4177 18.8643 32.1508 17.9312 31.8947C17.4921 31.7757 17.053 31.653 16.6179 31.5268C16.4689 31.4835 16.3199 31.4366 16.1749 31.3933L18.237 19.7926L19.5935 19.991C21.2911 20.2399 23.1455 19.3128 23.8198 17.8772C24.3138 16.8275 24.7764 15.7958 25.1606 14.9229C25.882 13.3032 25.486 11.5465 24.1296 10.3417C23.4513 9.73932 22.6202 9.476 21.8125 9.21989L21.4597 9.10806C20.9226 8.93131 20.3816 8.76177 19.8405 8.59224C18.978 8.3217 18.0841 8.04034 17.2216 7.73733C15.0889 6.99425 12.8267 7.73733 11.7133 9.54453C9.40806 13.2996 6.74212 17.7653 4.45646 22.3825C3.13133 25.0627 1.4612 28.6158 0.288966 32.3564C-0.397123 34.5496 0.139987 36.483 1.88461 38.0991C2.56286 38.7267 3.32344 39.293 4.05657 39.8413L4.54663 40.2057C9.98829 44.3034 15.2143 47.4237 20.5266 49.7431C23.1494 50.8866 25.8075 51.7811 28.4264 52.398C28.6342 52.4485 28.6617 52.4882 28.6891 52.6433C28.9283 54.0393 29.4301 55.4461 30.2259 56.9467C31.0022 58.404 32.1039 59.6809 33.1624 60.8641C33.3467 61.0733 33.429 61.2717 33.4251 61.535V65.2035C33.4212 65.3514 33.4212 65.4993 33.429 65.6472C33.48 66.329 34.068 66.9025 34.8012 66.9819C34.8678 66.9891 34.9305 66.9927 34.9972 66.9927C35.7186 66.9927 36.3615 66.5598 36.538 65.9286C36.6085 65.6688 36.6477 65.3839 36.6477 65.0737C36.6477 64.4929 36.6477 64.1574 36.6477 63.9626V62.3286C36.6477 62.2637 36.6477 62.1807 36.6516 62.1194C36.7144 62.1194 36.8006 62.1194 36.8751 62.1194C42.6383 62.1194 48.4014 62.1194 54.1645 62.1194C54.2469 62.1194 54.341 62.1194 54.4076 62.1194C54.4076 62.1807 54.4076 62.2709 54.4076 62.3502C54.4076 63.0825 54.4076 63.4937 54.4351 63.7246H54.4076C54.4076 63.7246 54.4076 63.8616 54.4076 65.0953C54.4076 65.2757 54.4115 65.4524 54.4272 65.6292C54.4899 66.4624 55.278 66.9314 55.9876 66.953C56.0033 66.953 56.015 66.953 56.0307 66.953C56.7285 66.953 57.5048 66.4588 57.5793 65.6977V65.64C57.6067 65.4199 57.6303 65.1927 57.6303 64.9618C57.6303 63.7679 57.6303 63.4937 57.6342 63.3891L57.6224 61.7045C57.6224 61.2969 57.7322 60.9975 57.9949 60.7126C59.367 59.2156 60.3197 57.9062 60.9901 56.5859C61.8527 54.8833 62.3466 53.2421 62.5034 51.5683C62.6563 49.9379 62.5191 48.2966 62.3937 46.713C62.3309 45.9483 62.2682 45.1583 62.2369 44.3828C62.2016 43.4882 62.1232 42.5828 62.0526 41.7099C62.0173 41.295 61.982 40.8802 61.9507 40.4654C61.9507 40.4474 61.9507 40.4293 61.9507 40.4077C62.5897 40.4149 63.1425 40.6025 63.6757 40.992C64.4127 41.5295 64.7734 42.287 64.7734 43.3006C64.7734 50.5872 64.7734 54.3278 64.7734 60.2003V65.0809V65.2035C64.7734 65.3803 64.7734 65.5606 64.793 65.7482C64.8518 66.1919 65.1576 66.5887 65.6124 66.8123C66.075 67.0396 66.6161 67.0504 67.0591 66.8448C67.4786 66.65 67.7569 66.3542 67.8981 65.961C67.949 65.9177 67.9882 65.8456 68 65.7374V65.6869C68 65.6869 68 65.6797 68 65.6761V43.3295C68 42.4097 67.8667 41.6738 67.5727 41.0101L67.5805 41.0173ZM58.9162 53.2096C58.3791 55.1611 57.2696 56.9611 55.3172 59.0424C55.2858 59.0749 55.1368 59.1254 54.9918 59.1254C53.9019 59.1362 52.812 59.1362 51.7181 59.1362H43.5753C41.0857 59.1362 38.6001 59.1362 36.1106 59.1398H36.1067C35.8597 59.1398 35.7225 59.0785 35.5657 58.8981C34.5777 57.7691 33.5544 56.5463 32.8566 55.1178C31.9941 53.3467 31.606 51.5214 31.6961 49.6854C31.7706 48.1992 31.8726 46.6842 31.9706 45.2233L32.0215 44.4766C32.1039 43.2429 32.198 42.0129 32.296 40.7828L32.3116 40.5736C32.3116 40.5231 32.3195 40.4582 32.3273 40.4077C32.3744 40.4077 32.4371 40.4077 32.492 40.4077C32.8684 40.4077 33.2486 40.4077 33.6289 40.4077C34.3974 40.4077 35.1697 40.4077 35.9381 40.4005C36.1145 40.3896 36.1812 40.4257 36.2988 40.6313C37.471 42.6441 39.2235 44.105 41.5092 44.9744C43.144 45.5984 44.8259 45.8257 46.5039 45.6561C50.197 45.2846 52.9688 43.5892 54.7369 40.6205C54.8545 40.4221 54.929 40.3932 55.1094 40.3969C56.2503 40.4149 57.4107 40.4149 58.5594 40.3969C58.5673 40.3969 58.5712 40.3969 58.579 40.3969C58.6614 40.3969 58.6927 40.4077 58.7006 40.4041C58.7045 40.4113 58.7202 40.4474 58.728 40.5411C58.7907 41.5115 58.8613 42.4818 58.928 43.4521C58.9672 44.0221 59.0103 44.592 59.0495 45.162C59.0965 45.8293 59.1397 46.4966 59.1828 47.1639C59.2338 47.9178 59.2808 48.6718 59.3357 49.4257C59.4219 50.6413 59.2847 51.8785 58.9162 53.2096ZM46.3 42.6586C43.7674 42.8822 41.6581 42.1283 40.0233 40.4113C40.0625 40.4113 40.1017 40.4113 40.1409 40.4077C40.2428 40.4077 40.3487 40.4077 40.4506 40.4077C40.6858 40.4077 40.925 40.4077 41.172 40.368C41.8894 40.2454 42.4187 39.6033 42.4305 38.8422C42.4383 38.4237 42.4383 38.0053 42.4344 37.5868C42.4344 37.3307 42.4344 37.0782 42.4344 36.8221C42.4344 36.768 42.4344 36.7103 42.4422 36.6526C44.5162 37.0133 46.5313 37.0133 48.5817 36.6526C48.5857 36.6995 48.5896 36.7428 48.5935 36.7897C48.5935 37.1071 48.5935 37.4209 48.5935 37.7384C48.5935 38.081 48.5935 38.4237 48.5935 38.7664C48.6013 39.4914 48.9228 39.9965 49.5462 40.2598C49.7422 40.3427 49.9853 40.3896 50.2832 40.4041C50.4126 40.4113 50.5381 40.4113 50.6675 40.4149C50.7576 40.4149 50.8478 40.4149 50.934 40.4221C49.7775 41.7423 48.2211 42.4962 46.2882 42.6658L46.3 42.6586ZM34.9384 23.3024C34.8796 22.9092 35.0129 22.6495 35.4324 22.3465C37.6043 20.7809 39.3764 19.1649 40.8466 17.4082C40.8505 17.401 40.8584 17.3938 40.8623 17.3866C40.9289 17.4371 40.9877 17.4804 41.0426 17.5273C42.6265 18.7898 44.5319 19.2803 46.7077 18.9846C47.9819 18.8114 49.1267 18.2992 50.1186 17.4659C50.1499 17.4371 50.1774 17.419 50.1931 17.4082C50.2009 17.419 50.2127 17.4299 50.2284 17.4479C51.6397 19.1469 53.4314 20.7701 55.87 22.5665C56.0346 22.6855 56.0817 22.7829 56.0777 22.9633C56.0699 23.2591 56.0777 23.5549 56.0777 23.8507C56.0817 24.2727 56.0895 24.7092 56.0621 25.1276C55.8072 28.9801 53.7999 31.6819 50.099 33.1572C48.2054 33.9111 46.0373 34.1276 43.6537 33.8029C41.9835 33.5757 40.6819 33.168 39.5528 32.5151C37.7651 31.4835 36.4635 30.0586 35.695 28.2839C35.1462 27.0214 34.8953 25.6434 34.9462 24.1861L34.9541 24.0238C34.9658 23.7893 34.9737 23.5513 34.9384 23.306V23.3024ZM31.6687 20.4419C31.6608 20.3733 31.6648 20.2543 31.6648 20.1461V19.8972C31.6648 19.5292 31.6648 19.1613 31.6648 18.7934V18.2775L31.6491 17.9926H31.6452C31.653 17.8303 31.6569 17.6679 31.6608 17.5056C31.6804 16.9465 31.6961 16.373 31.751 15.8102C31.9392 13.8155 32.7978 11.9902 34.2993 10.385C35.6637 8.9277 37.3573 7.9213 39.3372 7.38743C40.3604 7.11329 41.3602 6.92932 42.305 6.84275C43.8301 6.70567 45.2219 6.64796 46.5548 6.67321C48.421 6.70567 50.1421 6.94375 51.6711 7.38022C54.8702 8.29645 57.1716 10.1794 58.5124 12.9858C59.0926 14.1978 59.3827 15.5289 59.4063 17.0583C59.418 17.8844 59.4141 18.714 59.4102 19.5401V20.2976C59.4102 20.3769 59.4063 20.4274 59.4023 20.4599C59.3631 20.4599 59.3043 20.4671 59.222 20.4671C59.1867 20.4671 59.1514 20.4671 59.1161 20.4707C58.5398 20.5465 58.0576 20.3914 57.5009 19.9621C55.7602 18.6166 53.945 17.1124 52.4866 15.2583C52.2317 14.9373 51.9847 14.5766 51.7417 14.1906C51.2986 13.48 50.7145 13.3213 50.2754 13.3213C50.2519 13.3213 50.2284 13.3213 50.2088 13.3213C49.5658 13.3465 49.0796 13.6676 48.7268 14.2988C48.1505 15.3377 47.2252 15.9221 45.9746 16.0411C44.6024 16.1673 43.5321 15.785 42.7088 14.8543C42.5246 14.6451 42.3677 14.3926 42.2384 14.169C41.9247 13.6351 41.3837 13.3104 40.7917 13.2996C40.2193 13.2852 39.7096 13.5666 39.3882 14.0607C37.7376 16.6038 35.3618 18.5625 33.0409 20.2976C32.8605 20.4346 32.6488 20.4383 32.3469 20.4383H32.0999C31.9314 20.4383 31.7589 20.4383 31.6648 20.431L31.6687 20.4419ZM54.1253 5.02111C54.7997 3.92453 56.5717 3.01191 58.1948 2.97584C60.7314 2.91451 62.8798 4.361 63.5816 6.57221C64.1971 8.51648 63.3228 10.7349 61.539 11.882C60.0218 8.71127 57.5323 6.40628 54.1293 5.02111H54.1253ZM59.6807 26.4731C59.5043 26.4731 59.32 26.4767 59.2181 26.4695C59.2181 26.3901 59.2298 26.253 59.2455 26.1232L59.2573 26.0186C59.3122 25.445 59.32 24.8607 59.3239 24.2943C59.3239 24.0851 59.3239 23.8795 59.3318 23.6595C59.3318 23.5873 59.3318 23.508 59.3396 23.4503C59.4023 23.4467 59.4964 23.443 59.5905 23.443C60.0571 23.4322 60.551 23.4539 60.9745 23.7028C61.5782 24.0527 61.8527 24.6767 61.688 25.326C61.5194 25.9897 60.9901 26.419 60.2727 26.4731C60.1512 26.4839 60.0257 26.4803 59.8963 26.4767C59.8297 26.4767 59.763 26.4767 59.7003 26.4767H59.6807V26.4731ZM31.8608 26.4911C31.8098 26.4911 31.7589 26.4911 31.7314 26.4911C31.6452 26.4911 31.5589 26.4911 31.4727 26.4911H31.3511C31.3511 26.4911 31.3315 26.4911 31.3198 26.4911C30.7983 26.4911 30.3984 26.4695 30.0456 26.2494C29.4222 25.8599 29.1713 25.1817 29.3909 24.4819C29.5595 23.9481 30.222 23.4863 30.8689 23.4503C31.0022 23.443 31.1394 23.4467 31.2727 23.4503C31.4099 23.4503 31.5471 23.4503 31.6804 23.4503C31.6883 23.4503 31.7001 23.4503 31.704 23.4503C31.704 23.4647 31.704 23.4863 31.704 23.5152C31.704 23.6162 31.704 23.7172 31.7079 23.8146L31.7432 24.4639C31.7745 25.0879 31.8098 25.7156 31.849 26.3396C31.849 26.3793 31.8569 26.437 31.8569 26.4875L31.8608 26.4911ZM3.42145 33.0851C4.09186 31.0218 4.95045 28.8502 6.04819 26.4478C7.33019 23.645 8.76902 20.8459 10.3255 18.1297C11.333 16.3693 12.3994 14.5946 13.4266 12.8812C13.7951 12.2644 14.1676 11.6475 14.5322 11.0307C14.7556 10.6555 15.132 10.4572 15.575 10.4572C15.7514 10.4572 15.9396 10.4896 16.1317 10.5545C17.1746 10.9081 18.237 11.2471 19.2681 11.5754C19.8288 11.7521 20.3894 11.9325 20.9461 12.1129C21.2088 12.1994 21.4832 12.286 21.7224 12.4123C22.236 12.6792 22.432 13.1734 22.2203 13.6676C21.8282 14.5874 21.4009 15.5577 20.95 16.5461C20.7109 17.0691 20.1816 17.1052 19.7778 17.0403C19.5622 17.0078 19.3505 16.9645 19.1348 16.9212C18.5115 16.795 17.8724 16.6651 17.1824 16.7481C16.2141 16.8671 15.3633 17.6246 15.2026 18.512C15.0653 19.2695 14.9242 20.027 14.787 20.7845C14.6145 21.726 14.4381 22.6711 14.2695 23.6126C14.1519 24.2799 14.0382 24.9472 13.9245 25.6146C13.8147 26.2603 13.7049 26.906 13.5912 27.5516C13.5089 28.0278 13.4148 28.5003 13.3246 28.9729C13.1757 29.7556 13.0188 30.5673 12.8973 31.3717C12.8777 31.4979 12.8463 31.6242 12.8189 31.754C12.7248 32.1616 12.619 32.6234 12.8071 33.1103C12.9953 33.5937 13.3364 33.9003 13.8186 34.0121C14.0735 34.0734 14.3322 34.1203 14.587 34.1708C14.8615 34.2249 15.132 34.2754 15.4025 34.3404L16.0455 34.4991C16.8609 34.6975 17.7038 34.9031 18.5076 35.1628C21.7028 36.1873 25.0038 37.6049 28.893 39.6213C29.0851 39.7187 29.1086 39.78 29.0968 39.9315C28.9714 41.5512 28.8616 43.1672 28.7518 44.7868C28.6891 45.7102 28.6303 46.6337 28.5754 47.5571L28.4813 49.0505C28.4774 49.1371 28.4696 49.2273 28.4617 49.3247C28.4068 49.3102 28.3519 49.2994 28.2971 49.285C27.9403 49.1984 27.5992 49.119 27.2738 49.0216C24.8274 48.2966 22.3496 47.3335 19.9072 46.1611C17.0178 44.7724 14.1715 43.1455 11.2076 41.1868C8.85527 39.6321 6.55393 37.9512 4.37021 36.1981C3.70765 35.6678 3.3352 35.0366 3.26463 34.3296C3.22542 33.958 3.28423 33.5143 3.42145 33.0815V33.0851Z" fill="url(#paint0_linear_430_274)"/>
<path d="M40.8742 23.7497H40.9055C42.0464 23.7316 42.7952 23.0354 42.8109 21.9785C42.8187 21.4663 42.6227 21.0082 42.2659 20.6835C41.9249 20.3733 41.4818 20.2182 40.9486 20.2254C40.4625 20.2002 40.0195 20.3481 39.6784 20.6367C39.2942 20.9577 39.0707 21.4266 39.0511 21.9497C39.0315 22.433 39.2315 22.9056 39.6 23.2519C39.945 23.5765 40.3998 23.7533 40.8742 23.7533V23.7497Z" fill="url(#paint1_linear_430_274)"/>
<path d="M50.103 23.757H50.1069C51.1576 23.757 51.9848 22.9743 51.9848 21.9787C51.9848 21.4917 51.7966 21.0444 51.4556 20.7234C51.1105 20.4023 50.6322 20.2256 50.1069 20.2256C49.5815 20.2256 49.1072 20.3951 48.77 20.7053C48.425 21.0228 48.2368 21.4737 48.2368 21.9787C48.2368 22.4765 48.4368 22.931 48.8053 23.2664C49.1503 23.5839 49.6129 23.7606 50.1069 23.7606L50.103 23.757Z" fill="url(#paint2_linear_430_274)"/>
<path d="M41.6974 26.7257C41.2858 26.8014 40.9212 27.0611 40.7251 27.4146C40.4507 27.9088 40.5918 28.5545 41.0623 28.9838C42.1796 30.001 43.5361 30.5601 45.0847 30.6575V30.6827L45.4768 30.6755L45.8688 30.6827V30.6575C47.4174 30.5565 48.7739 30.001 49.8913 28.9838C50.3657 28.5545 50.5029 27.9088 50.2284 27.4146C50.0324 27.0611 49.6678 26.8014 49.2562 26.7257C48.8484 26.6499 48.4329 26.7545 48.0839 27.0251L47.9663 27.1188C47.6644 27.3533 47.3782 27.577 47.0646 27.7393C46.5981 27.981 46.0531 28.1072 45.4768 28.1108C44.9044 28.1108 44.3555 27.9774 43.889 27.7393C43.5753 27.577 43.2891 27.3569 42.9873 27.1188L42.8697 27.0251C42.5207 26.7545 42.1052 26.6499 41.6974 26.7257Z" fill="url(#paint3_linear_430_274)"/>
<defs>
<linearGradient id="paint0_linear_430_274" x1="22.6697" y1="47.5" x2="70.0444" y2="14.7028" gradientUnits="userSpaceOnUse">
<stop stop-color="#DE003B"/>
<stop offset="1" stop-color="#FF3F9B"/>
</linearGradient>
<linearGradient id="paint1_linear_430_274" x1="40.3037" y1="22.726" x2="42.8407" y2="20.8826" gradientUnits="userSpaceOnUse">
<stop stop-color="#DE003B"/>
<stop offset="1" stop-color="#FF3F9B"/>
</linearGradient>
<linearGradient id="paint2_linear_430_274" x1="49.4863" y1="22.732" x2="52.0227" y2="20.8979" gradientUnits="userSpaceOnUse">
<stop stop-color="#DE003B"/>
<stop offset="1" stop-color="#FF3F9B"/>
</linearGradient>
<linearGradient id="paint3_linear_430_274" x1="43.8472" y1="29.5244" x2="46.4943" y2="25.0881" gradientUnits="userSpaceOnUse">
<stop stop-color="#DE003B"/>
<stop offset="1" stop-color="#FF3F9B"/>
</linearGradient>
</defs>
</svg>
