<svg width="57" height="39" viewBox="0 0 57 39" fill="none" xmlns="http://www.w3.org/2000/svg">
<path d="M31.0695 0.0921864C40.7054 1.78465 49.1108 5.74095 55.1241 13.8743C57.2432 16.7313 56.9521 19.7592 54.4799 22.5978C51.651 25.8489 47.9191 27.8466 43.8214 28.7145C39.0597 29.7194 34.1772 30.408 29.3228 30.6553C24.332 30.9076 19.3021 30.4685 14.2865 30.3258C13.1045 30.2944 11.9151 30.2495 10.6427 30.5456C14.8337 32.391 18.9845 34.2585 23.4309 35.3471C24.6741 35.6493 26.1588 35.7414 26.47 37.9791C25.5651 38.1524 24.6629 38.585 23.8557 38.4441C20.7362 37.8902 17.5954 37.3131 14.5462 36.4426C10.9003 35.403 7.31444 34.1393 3.76377 32.8129C0.9225 31.7504 -0.310102 29.6081 1.12459 27.0501C2.81865 24.0285 5.30692 21.4418 7.55952 18.7581C7.93211 18.3109 8.84694 18.3147 9.61966 18.0746C11.6179 21.7279 7.64211 23.3114 7.15259 26.3261C18.1403 25.897 29.1004 27.3085 39.9865 25.3268C43.3767 24.7069 46.6617 23.736 49.5225 21.7192C53.1953 19.1366 53.4526 17.4138 50.6517 13.93C46.4483 8.69242 40.7373 5.70503 34.6734 3.23237C33.2837 2.66244 31.9815 1.87086 30.6355 1.19011C30.7757 0.826576 30.9196 0.469734 31.0597 0.106197L31.0695 0.0921864Z" fill="#2D1A61"/>
</svg>
