<svg width="69" height="67" viewBox="0 0 69 67" fill="none" xmlns="http://www.w3.org/2000/svg">
<path d="M65.0936 42.7686C64.8866 44.3806 64.7233 46.0035 64.4655 47.6082C63.5832 53.0541 62.6611 58.4964 61.7571 63.9387C61.6772 64.4143 61.6264 64.8971 61.5174 65.3655C61.2996 66.284 60.5335 66.8214 59.7312 66.6507C58.9361 66.4837 58.4423 65.6959 58.5912 64.7773C59.5969 58.6779 60.6316 52.5858 61.6118 46.4827C61.8151 45.2084 61.8406 43.905 61.9458 42.6125C61.9749 42.2531 61.9604 41.8864 62.0221 41.5306C62.1818 40.652 62.7881 40.151 63.576 40.1945C64.382 40.2381 64.9084 40.7718 64.9956 41.6758C65.0319 42.0352 65.0028 42.3983 65.0028 42.7614C65.0355 42.7614 65.0645 42.7686 65.0972 42.7722L65.0936 42.7686Z" fill="url(#paint0_linear_430_262)"/>
<path d="M58.3443 9.88615C58.8526 10.3545 59.3826 10.8011 59.8583 11.2985C60.5408 12.01 60.5771 12.8741 60.0035 13.4804C59.4008 14.1122 58.4932 14.094 57.7561 13.3715C56.3765 12.0209 55.0078 10.6595 53.6608 9.27258C52.9202 8.51015 52.9238 7.71868 53.6681 6.95262C55.015 5.56936 56.3801 4.20426 57.7634 2.85367C58.4714 2.16386 59.3391 2.13844 59.9454 2.71934C60.5771 3.32565 60.5372 4.20789 59.8292 4.97031C59.3645 5.47134 58.8744 5.95058 58.3988 6.43708C58.4205 6.50606 58.4423 6.57141 58.4605 6.64039C58.7727 6.64039 59.0886 6.64039 59.4008 6.64039C62.3271 6.64039 63.438 6.64039 66.3679 6.64039C66.6075 6.64039 66.8508 6.63313 67.0904 6.64402C68.0888 6.68759 68.7097 7.23581 68.7206 8.09263C68.7351 8.9785 68.0961 9.55213 67.0468 9.58844C66.8072 9.5957 66.564 9.58844 66.3244 9.58844C63.4271 9.58844 62.3452 9.58844 59.448 9.58844C59.1249 9.58844 58.8018 9.58844 58.4786 9.58844C58.4314 9.68646 58.3879 9.78449 58.3407 9.88252L58.3443 9.88615Z" fill="url(#paint1_linear_430_262)"/>
<path d="M10.562 9.56339C10.2389 9.56339 9.91573 9.56339 9.59624 9.56339C6.60825 9.56339 5.06888 9.56339 2.08089 9.55613C0.842857 9.55613 0.0259715 8.99339 0.00055726 8.14746C-0.0248569 7.27248 0.821073 6.68069 2.11357 6.68069C5.10155 6.67343 6.64093 6.67706 9.62891 6.67343C9.94841 6.67343 10.2643 6.67343 10.5838 6.67343C10.6092 6.60082 10.6346 6.52821 10.66 6.4556C10.2134 5.98725 9.74872 5.53342 9.32031 5.05055C8.89553 4.56768 8.50706 4.04851 8.78661 3.34054C9.18961 2.32397 10.3332 2.02263 11.161 2.80321C12.5879 4.15016 13.9784 5.53705 15.3181 6.96751C16.0696 7.76987 16.0623 8.49236 15.2999 9.29836C13.953 10.7252 12.5588 12.1048 11.1392 13.459C10.5111 14.0581 9.76687 14.0036 9.18598 13.459C8.58693 12.8963 8.50706 12.2391 9.06617 11.5203C9.54178 10.9067 10.1118 10.3694 10.6418 9.79938C10.6164 9.72314 10.591 9.64326 10.5656 9.56702L10.562 9.56339Z" fill="url(#paint2_linear_430_262)"/>
<path d="M29.7678 17.3253C29.786 16.995 29.7678 16.6573 29.8295 16.3342C29.9639 15.6081 30.5085 15.1724 31.2237 15.1651C31.9462 15.1579 32.5416 15.5754 32.6396 16.2979C32.7268 16.9478 32.7231 17.6267 32.6505 18.2802C32.5779 18.9337 31.8627 19.4456 31.2201 19.4347C30.5738 19.4202 29.9276 18.8865 29.8223 18.233C29.7751 17.9389 29.815 17.6303 29.815 17.329C29.8005 17.329 29.786 17.329 29.7715 17.329L29.7678 17.3253Z" fill="url(#paint3_linear_430_262)"/>
<path d="M64.7196 35.4457C64.5817 34.4001 64.4473 33.3436 64.1642 32.3343C62.8644 27.6835 60.5808 23.5119 57.836 19.5763C57.7997 19.5255 57.767 19.4747 57.7344 19.4166C57.4911 19.0136 57.2297 18.6178 56.9429 18.2439L51.3082 10.783C49.8596 8.43402 49.1698 7.39203 48.6942 1.36886C48.6397 0.67542 48.0152 -0.0107638 47.3182 0.000127969C46.5775 0.0146504 45.924 0.559241 45.9639 1.52861C45.9639 1.52861 46.4141 5.96521 46.8789 7.7914C47.3436 9.61396 48.0152 11.4293 49.1698 12.9105C50.8181 15.0308 52.3683 17.2273 53.9549 19.3948C54.0929 19.58 54.2018 19.7869 54.3543 20.0374C54.1655 20.1245 54.0384 20.2044 53.9004 20.2407C49.0754 21.4534 44.5081 23.334 40.0025 25.4143C37.305 26.6596 34.4658 27.5745 31.4924 27.7815C29.7388 27.9049 27.9235 27.6871 26.1881 27.3676C23.781 26.9283 21.461 26.1005 19.2863 24.9787C17.8449 24.2344 17.7469 24.3615 18.1644 23.2142C19.2246 20.3133 20.4699 16.2471 20.9092 13.1937C21.1597 11.4293 21.9729 5.59488 22.3033 1.68836C22.3723 0.882364 21.7333 0.19255 20.9273 0.19255H20.8983C20.1794 0.19255 19.5804 0.744401 19.5223 1.46326C19.3153 3.99016 18.6292 9.91167 17.8086 14.3337C17.4202 16.4286 16.1059 20.0955 15.4742 22.1323C14.1091 26.5217 12.6967 30.8965 11.8835 35.4203C10.4567 43.3241 9.11698 51.2388 7.78455 59.1608C7.4941 60.8817 7.34161 62.6316 7.21817 64.3743C7.15282 65.311 7.78092 65.9137 8.61595 65.9355C9.50545 65.9573 10.0718 65.3255 10.1118 64.2581C10.159 63.06 10.4458 61.1177 10.6455 59.9341C11.9743 52.0266 13.3248 44.1192 14.6827 36.2154C14.8243 35.3985 15.0603 34.5998 15.2963 33.5941C15.7101 34.0261 15.9752 34.2948 16.2293 34.5743C17.3766 35.816 18.4985 37.0831 19.6784 38.2921C20.2448 38.873 20.9927 38.8548 21.5663 38.3828C22.0891 37.9544 22.238 37.1158 21.8568 36.4877C21.6716 36.1827 21.4175 35.914 21.1778 35.6417C19.6748 33.9499 18.1608 32.2689 16.6723 30.5625C16.4726 30.3338 16.2547 29.9599 16.2983 29.6984C16.4399 28.8816 16.7013 28.0865 16.9337 27.2079C17.3149 27.3676 17.5654 27.4584 17.805 27.5745C20.3501 28.7908 22.9968 29.7202 25.756 30.3011C28.6496 30.9074 31.5323 31.0454 34.4622 30.352C37.6571 29.5968 40.6814 28.4277 43.6549 27.0626C47.035 25.5124 50.4804 24.0964 54.1147 23.2686C56.9138 22.6297 56.126 22.4009 57.6146 24.7463C57.9921 25.3417 58.2971 25.9807 58.5803 26.5035C56.8449 27.2478 55.1893 27.8323 53.6536 28.6419C50.15 30.4863 47.1693 33.0495 44.3265 35.7724C41.226 38.7423 38.3361 41.9045 35.6785 45.281C35.0467 46.0833 34.8362 46.1777 33.9031 45.7929C33.0426 45.4371 32.1495 45.0777 31.4016 44.5367C29.5173 43.1825 27.7093 41.7266 25.8722 40.3071C25.1061 39.7153 24.3691 39.7407 23.7737 40.3797C23.1964 41.0005 23.2291 41.8101 23.8935 42.4782C24.2747 42.863 24.7031 43.2043 25.117 43.5528C27.4007 45.4952 29.7569 47.3286 32.5779 48.4505C33.3428 48.753 33.5896 49.311 33.3186 50.1242C31.7719 54.7641 30.2253 59.404 28.6823 64.0476C28.5697 64.3888 28.4427 64.741 28.4064 65.0932C28.3301 65.8011 28.7731 66.4111 29.4411 66.6071C30.0692 66.7887 30.7481 66.5382 31.0821 65.9573C31.2455 65.6741 31.3471 65.351 31.4524 65.0351C32.4327 62.1161 33.4057 59.1935 34.3823 56.2708C34.484 55.9658 34.6002 55.6645 34.7127 55.3595C34.7672 55.3741 34.8216 55.3886 34.8797 55.4031C35.0177 57.2075 35.1484 59.0083 35.29 60.8127C35.4062 62.254 35.5187 63.699 35.6639 65.1404C35.762 66.1097 36.43 66.7233 37.2505 66.658C38.0747 66.5926 38.6229 65.9827 38.572 65.0278C38.4595 62.9184 38.2997 60.8127 38.1327 58.7106C37.8677 55.4358 37.5845 52.161 37.2977 48.8862C37.2469 48.3162 37.3957 47.8551 37.7697 47.394C40.9864 43.4221 44.41 39.6463 48.2512 36.2662C50.3606 34.411 52.5353 32.6066 55.0477 31.3213C56.3511 30.6533 57.7816 30.2321 59.1648 29.7239C59.8256 29.4806 60.2576 29.7275 60.4283 30.4318C60.8603 32.2181 61.3359 33.9898 61.7353 35.7833C61.9531 36.7672 62.603 37.4171 63.4308 37.3082C64.2985 37.1956 64.854 36.4441 64.7233 35.4529L64.7196 35.4457Z" fill="url(#paint4_linear_430_262)"/>
<defs>
<linearGradient id="paint0_linear_430_262" x1="59.5629" y1="52.9043" x2="64.1928" y2="52.7658" gradientUnits="userSpaceOnUse">
<stop stop-color="#DE003B"/>
<stop offset="1" stop-color="#FF3F9B"/>
</linearGradient>
<linearGradient id="paint1_linear_430_262" x1="34.5001" y1="9.49976" x2="66.0862" y2="4.75945" gradientUnits="userSpaceOnUse">
<stop stop-color="#DE003B"/>
<stop offset="1" stop-color="#FF3F9B"/>
</linearGradient>
<linearGradient id="paint2_linear_430_262" x1="2.42584" y1="7.89316" x2="35.3352" y2="5.61704" gradientUnits="userSpaceOnUse">
<stop stop-color="#DE003B"/>
<stop offset="1" stop-color="#FF3F9B"/>
</linearGradient>
<linearGradient id="paint3_linear_430_262" x1="30.2166" y1="17.2141" x2="32.2858" y2="17.0414" gradientUnits="userSpaceOnUse">
<stop stop-color="#DE003B"/>
<stop offset="1" stop-color="#FF3F9B"/>
</linearGradient>
<linearGradient id="paint4_linear_430_262" x1="16.0034" y1="31.9919" x2="56.3717" y2="27.7666" gradientUnits="userSpaceOnUse">
<stop stop-color="#DE003B"/>
<stop offset="1" stop-color="#FF3F9B"/>
</linearGradient>
</defs>
</svg>
