<svg preserveAspectRatio="none" viewBox="0 0 275 281" fill="none" xmlns="http://www.w3.org/2000/svg">
    <path d="M256.75 29.1695C266.829 29.1695 275 38.7466 275 50.5606L275 259.609C275 271.423 266.829 281 256.75 281L18.2504 281C8.17098 281 -1.01242e-05 271.423 -9.68352e-06 259.609L-1.88593e-06 50.5606C-1.44526e-06 38.7466 8.17099 29.1695 18.2504 29.1695L114.337 29.1695L138.122 -7.01147e-06L161.907 29.1695L256.75 29.1695Z" fill="url(#paint0_linear_430_826)"/>
    <path d="M114.337 30.1695L114.812 30.1695L115.112 29.8015L138.122 1.5824L161.132 29.8015L161.432 30.1695L161.907 30.1695L256.75 30.1695C266.134 30.1695 274 39.1441 274 50.5606L274 259.609C274 271.025 266.134 280 256.75 280L18.2504 280C8.86629 280 0.99999 271.025 0.99999 259.609L0.999998 50.5606C0.999999 39.1441 8.8663 30.1695 18.2504 30.1695L114.337 30.1695Z" stroke="white" stroke-opacity="0.6" stroke-width="2"/>
    <defs>
        <linearGradient id="paint0_linear_430_826" x1="213.612" y1="298.502" x2="-24.9255" y2="303.457" gradientUnits="userSpaceOnUse">
            <stop stop-color="white"/>
            <stop offset="1" stop-color="white" stop-opacity="0"/>
        </linearGradient>
    </defs>
</svg>