<svg width="153" height="153" viewBox="0 0 153 153" fill="none" xmlns="http://www.w3.org/2000/svg">
<circle cx="76.5" cy="76.5" r="75.5" stroke="#E1055F" stroke-width="2"/>
<path d="M67.2183 92.7357L67.2815 93.668H68.216H83.592H84.5265L84.5897 92.7357L88.4337 36.0677L88.5061 35H87.436H64.372H63.3019L63.3743 36.0677L67.2183 92.7357ZM66.6409 121.151C69.0801 123.59 72.1959 124.792 75.904 124.792C79.6832 124.792 82.8084 123.597 85.1737 121.145C87.5822 118.733 88.808 115.838 88.808 112.508C88.808 109.105 87.5879 106.236 85.1534 103.975C82.7865 101.616 79.6681 100.472 75.904 100.472C72.2108 100.472 69.1018 101.622 66.6615 103.969C64.2224 106.231 63 109.102 63 112.508C63 115.841 64.2281 118.738 66.6409 121.151Z" stroke="#E1055F" stroke-width="2"/>
</svg>
