<svg width="150" height="25" viewBox="0 0 150 25" fill="none" xmlns="http://www.w3.org/2000/svg">
<path d="M12.5303 21.1036C10.3608 22.2996 8.19511 23.4957 6.02564 24.6842C5.71144 24.8572 5.3935 25.1618 5.00449 24.891C4.57808 24.5901 4.77258 24.1727 4.84739 23.7815C5.28877 21.491 5.71144 19.1967 6.17526 16.9137C6.32113 16.1954 6.1603 15.7064 5.59922 15.2062C3.84494 13.6303 2.14677 11.9942 0.426156 10.3807C0.179285 10.1475 -0.108731 9.91811 0.0296663 9.51191C0.168064 9.10195 0.53837 9.12075 0.875012 9.07938C3.32876 8.77473 5.78251 8.46256 8.23625 8.16544C8.5916 8.12406 8.89084 8.07141 9.05916 7.69154C9.79603 6.04794 10.5441 4.4081 11.2885 2.76826C11.584 2.09127 11.872 1.41051 12.175 0.737273C12.3171 0.41758 12.3433 -0.00742372 12.8632 9.84721e-05C13.3233 0.00762066 13.4954 0.304747 13.6599 0.65829C14.6773 2.85853 15.7209 5.04749 16.7084 7.25901C16.9815 7.86831 17.3219 8.12406 18.0101 8.19176C20.4077 8.43623 22.7942 8.77849 25.1881 9.07938C25.5023 9.11699 25.8165 9.1358 25.9511 9.4931C26.1045 9.90306 25.8165 10.1362 25.5733 10.3657C23.8378 12.0055 22.1097 13.6604 20.3404 15.2626C19.8093 15.744 19.6671 16.2255 19.8055 16.9025C20.2656 19.1554 20.6883 21.4195 21.1297 23.6762C21.2119 24.0937 21.4401 24.545 20.9913 24.8797C20.5648 25.1994 20.2357 24.8158 19.899 24.6353C17.7632 23.4957 15.6386 22.341 13.5066 21.1901C13.1924 21.0209 12.8894 20.7388 12.5266 21.1036H12.5303Z" fill="#2D1A61"/>
<path d="M43.5303 21.1036C41.3608 22.2996 39.1951 23.4957 37.0256 24.6842C36.7114 24.8572 36.3935 25.1618 36.0045 24.891C35.5781 24.5901 35.7726 24.1727 35.8474 23.7815C36.2888 21.491 36.7114 19.1967 37.1753 16.9137C37.3211 16.1954 37.1603 15.7064 36.5992 15.2062C34.8449 13.6303 33.1468 11.9942 31.4262 10.3807C31.1793 10.1475 30.8913 9.91811 31.0297 9.51191C31.1681 9.10195 31.5384 9.12075 31.875 9.07938C34.3288 8.77473 36.7825 8.46256 39.2363 8.16544C39.5916 8.12406 39.8908 8.07141 40.0592 7.69154C40.796 6.04794 41.5441 4.4081 42.2885 2.76826C42.584 2.09127 42.872 1.41051 43.175 0.737273C43.3171 0.41758 43.3433 -0.00742372 43.8632 9.84721e-05C44.3233 0.00762066 44.4954 0.304747 44.6599 0.65829C45.6773 2.85853 46.7209 5.04749 47.7084 7.25901C47.9815 7.86831 48.3219 8.12406 49.0101 8.19176C51.4077 8.43623 53.7942 8.77849 56.1881 9.07938C56.5023 9.11699 56.8165 9.1358 56.9511 9.4931C57.1045 9.90306 56.8165 10.1362 56.5733 10.3657C54.8378 12.0055 53.1097 13.6604 51.3404 15.2626C50.8093 15.744 50.6671 16.2255 50.8055 16.9025C51.2656 19.1554 51.6883 21.4195 52.1297 23.6762C52.2119 24.0937 52.4401 24.545 51.9913 24.8797C51.5648 25.1994 51.2357 24.8158 50.899 24.6353C48.7632 23.4957 46.6386 22.341 44.5066 21.1901C44.1924 21.0209 43.8894 20.7388 43.5266 21.1036H43.5303Z" fill="#2D1A61"/>
<path d="M74.5303 21.1036C72.3608 22.2996 70.1951 23.4957 68.0256 24.6842C67.7114 24.8572 67.3935 25.1618 67.0045 24.891C66.5781 24.5901 66.7726 24.1727 66.8474 23.7815C67.2888 21.491 67.7114 19.1967 68.1753 16.9137C68.3211 16.1954 68.1603 15.7064 67.5992 15.2062C65.8449 13.6303 64.1468 11.9942 62.4262 10.3807C62.1793 10.1475 61.8913 9.91811 62.0297 9.51191C62.1681 9.10195 62.5384 9.12075 62.875 9.07938C65.3288 8.77473 67.7825 8.46256 70.2363 8.16544C70.5916 8.12406 70.8908 8.07141 71.0592 7.69154C71.796 6.04794 72.5441 4.4081 73.2885 2.76826C73.584 2.09127 73.872 1.41051 74.175 0.737273C74.3171 0.41758 74.3433 -0.00742372 74.8632 9.84721e-05C75.3233 0.00762066 75.4954 0.304747 75.6599 0.65829C76.6773 2.85853 77.7209 5.04749 78.7084 7.25901C78.9815 7.86831 79.3219 8.12406 80.0101 8.19176C82.4077 8.43623 84.7942 8.77849 87.1881 9.07938C87.5023 9.11699 87.8165 9.1358 87.9511 9.4931C88.1045 9.90306 87.8165 10.1362 87.5733 10.3657C85.8378 12.0055 84.1097 13.6604 82.3404 15.2626C81.8093 15.744 81.6671 16.2255 81.8055 16.9025C82.2656 19.1554 82.6883 21.4195 83.1297 23.6762C83.2119 24.0937 83.4401 24.545 82.9913 24.8797C82.5648 25.1994 82.2357 24.8158 81.899 24.6353C79.7632 23.4957 77.6386 22.341 75.5066 21.1901C75.1924 21.0209 74.8894 20.7388 74.5266 21.1036H74.5303Z" fill="#2D1A61"/>
<path d="M105.53 21.1036C103.361 22.2996 101.195 23.4957 99.0256 24.6842C98.7114 24.8572 98.3935 25.1618 98.0045 24.891C97.5781 24.5901 97.7726 24.1727 97.8474 23.7815C98.2888 21.491 98.7114 19.1967 99.1753 16.9137C99.3211 16.1954 99.1603 15.7064 98.5992 15.2062C96.8449 13.6303 95.1468 11.9942 93.4262 10.3807C93.1793 10.1475 92.8913 9.91811 93.0297 9.51191C93.1681 9.10195 93.5384 9.12075 93.875 9.07938C96.3288 8.77473 98.7825 8.46256 101.236 8.16544C101.592 8.12406 101.891 8.07141 102.059 7.69154C102.796 6.04794 103.544 4.4081 104.288 2.76826C104.584 2.09127 104.872 1.41051 105.175 0.737273C105.317 0.41758 105.343 -0.00742372 105.863 9.84721e-05C106.323 0.00762066 106.495 0.304747 106.66 0.65829C107.677 2.85853 108.721 5.04749 109.708 7.25901C109.981 7.86831 110.322 8.12406 111.01 8.19176C113.408 8.43623 115.794 8.77849 118.188 9.07938C118.502 9.11699 118.816 9.1358 118.951 9.4931C119.104 9.90306 118.816 10.1362 118.573 10.3657C116.838 12.0055 115.11 13.6604 113.34 15.2626C112.809 15.744 112.667 16.2255 112.806 16.9025C113.266 19.1554 113.688 21.4195 114.13 23.6762C114.212 24.0937 114.44 24.545 113.991 24.8797C113.565 25.1994 113.236 24.8158 112.899 24.6353C110.763 23.4957 108.639 22.341 106.507 21.1901C106.192 21.0209 105.889 20.7388 105.527 21.1036H105.53Z" fill="#2D1A61"/>
<path d="M136.53 21.1036C134.361 22.2996 132.195 23.4957 130.026 24.6842C129.711 24.8572 129.393 25.1618 129.004 24.891C128.578 24.5901 128.773 24.1727 128.847 23.7815C129.289 21.491 129.711 19.1967 130.175 16.9137C130.321 16.1954 130.16 15.7064 129.599 15.2062C127.845 13.6303 126.147 11.9942 124.426 10.3807C124.179 10.1475 123.891 9.91811 124.03 9.51191C124.168 9.10195 124.538 9.12075 124.875 9.07938C127.329 8.77473 129.783 8.46256 132.236 8.16544C132.592 8.12406 132.891 8.07141 133.059 7.69154C133.796 6.04794 134.544 4.4081 135.288 2.76826C135.584 2.09127 135.872 1.41051 136.175 0.737273C136.317 0.41758 136.343 -0.00742372 136.863 9.84721e-05C137.323 0.00762066 137.495 0.304747 137.66 0.65829C138.677 2.85853 139.721 5.04749 140.708 7.25901C140.981 7.86831 141.322 8.12406 142.01 8.19176C144.408 8.43623 146.794 8.77849 149.188 9.07938C149.502 9.11699 149.816 9.1358 149.951 9.4931C150.104 9.90306 149.816 10.1362 149.573 10.3657C147.838 12.0055 146.11 13.6604 144.34 15.2626C143.809 15.744 143.667 16.2255 143.806 16.9025C144.266 19.1554 144.688 21.4195 145.13 23.6762C145.212 24.0937 145.44 24.545 144.991 24.8797C144.565 25.1994 144.236 24.8158 143.899 24.6353C141.763 23.4957 139.639 22.341 137.507 21.1901C137.192 21.0209 136.889 20.7388 136.527 21.1036H136.53Z" fill="#2D1A61"/>
</svg>
